<svg version="1.0" xmlns="http://www.w3.org/2000/svg" width="1200" height="1200" viewBox="0 0 900 900"><path d="M0 19.5V39h2.9c1.7 0 3.3-.5 3.6-1 .9-1.5 2.2-1.2 2.2.5 0 .8-.6 1.5-1.4 1.5-.7 0-1.3.9-1.3 2s.6 2 1.4 2c1.7 0 3.8-2.4 2.9-3.3-1.2-1.3 2.6-1.8 6.1-.8 2.1.5 3.4.6 3.1 0-1-1.5 3.9-2.8 8.2-2.2 2.5.3 4.3.1 4.7-.6.4-.7-.1-1.1-1.3-1.1-1.1 0-2.3-.5-2.6-1.1-.5-.7.3-.9 2.4-.6 2.2.4 3.1.1 3.1-.9 0-.8.5-1.4 1-1.4.6 0 1 .4 1 1 0 .5.7 1 1.6 1 1.8 0 5.6 3.7 7.5 7.1 1 1.9 1.2 2 2.9.4 1.5-1.4 1.7-2.1.8-4-.6-1.4-1.6-2.1-2.4-1.8-.8.3-1.4 0-1.4-.6s1.1-1.1 2.4-1.1c1.3 0 2.7-.7 3-1.6.3-.8 1.1-1.2 1.6-.9 1.1.7 4.9-3.2 5-5.1 0-1.8 3.1-2.6 4.6-1.3 2.1 1.7 1.7 3.1-.6 2.4-1.6-.5-2-.2-2 1.4 0 1.1-.9 2.5-2 3.1-2.9 1.5-2.5 4 .5 4 1.4 0 2.5-.6 2.5-1.3 0-.7 1.6-2.1 3.5-3 1.9-.9 3.5-2.1 3.5-2.7 0-.5 1.3-1 2.9-1 3.3 0 4.9-1.6 3.2-3.3-2.1-2.1-1.1-3.5 3.1-4 2.4-.3 5.7-.9 7.5-1.4 4.6-1.2 2.8-3.6-2.8-3.7-2.6-.1-4.4-.6-4.7-1.4-.3-1.1.6-1.2 4-.7s4.7.3 5.7-.9c.8-.9 1.9-1.6 2.6-1.6.7 0 1.8-1.4 2.5-3 1.6-3.8 3-3.9 3-.1 0 2.6.4 3 3.8 3.6 2.5.4 4.7.1 6.7-.9 2.8-1.5 3-1.4 3.7.4.9 2.3 4.3 2.7 5.2.5.3-.8 1-1.5 1.6-1.5 2.1 0 .9 2.6-2.5 5.5-1.9 1.7-3.5 3.8-3.5 4.7 0 .9-1.2 3-2.6 4.5-1.4 1.5-3.4 3.7-4.3 4.8-.9 1.1-3 2.8-4.6 3.7-1.7.9-3.2 2.4-3.3 3.3-.6 3 3.4-.1 13.2-9.9 9.7-9.7 14.1-15.4 15.1-19.9.4-1.5 1.1-3 1.6-3.3.5-.3.9-1.2.9-2 0-1.1-2-1.4-10.4-1.4-7.7 0-10.4.3-10.3 1.2.1 3.1-.4 4.8-1.3 4.8-.5 0-.7-1.3-.3-3l.5-3H0v19.5zm69.8-6.7c.2.7-.3 1.2-1.2 1.2-.9 0-1.6-.7-1.6-1.6 0-1.7 2.2-1.4 2.8.4zM899.4 15.5c0 8.8.2 12.3.3 7.7.2-4.6.2-11.8 0-16-.1-4.2-.3-.5-.3 8.3z"/><path d="M91.8 14c-2.3 2.1-2.2 2.7.1 3.9 1.3.8 2.8.5 5.6-.9 3.7-1.9 3.5-2.7-.7-3.4-.7-.1-1.7-.4-2.3-.8-.5-.3-1.8.2-2.7 1.2zM103.7 18.6c-.4.4-.7 1.4-.7 2.3 0 1.1.3 1.2 1.1.4.6-.6 1-1.6.7-2.3-.2-.6-.7-.8-1.1-.4zM87.5 30c.3.5.8 1 1.1 1 .2 0 .4-.5.4-1 0-.6-.5-1-1.1-1-.5 0-.7.4-.4 1zM145 33c0 .3.7 3.9 1.5 8 .9 4.1 1.7 8.8 1.9 10.5 1.9 13.9 2.6 22.7 2.6 33.2 0 16.4 1.4 28.7 6.1 53.7 2.1 11.5 4.2 25.1 4.5 30.1.7 9.8.4 10.7-5.2 14.2-1.8 1.1-1.7 1.4 1.6 4.2 1.9 1.7 4 3.1 4.7 3.1 2.2 0 4 10.7 4.8 28.2 1 24.9 2.9 59.2 4 73.3.1 2.2.6 8 .9 13 .4 4.9 1 10.1 1.3 11.5.5 2.3.6 2.4 1.3.5.5-1.1.9-3.4.9-5.2.1-4.2 1-6.3 2.8-6.3.8 0 1.1-.5.7-1.1-.3-.6-1.7-.8-3-.5-2 .5-2.4.3-2.4-1.7 0-1.3.5-2.8 1.1-3.4.8-.8.6-2-.6-4.3-2-3.8-1.3-8 1.3-8 1 0 2.9-1.1 4.2-2.5 2-2.2 2.2-2.8 1.2-6.5-.6-2.3-.6-4.2-.1-4.6 1.6-1 .9-3.3-1.2-3.9-1.9-.6-1.9-.8-.4-2.5 1-1.1 1.4-2.6 1-3.8-.3-1.1-.1-2.3.5-2.7 2-1.2 1-3.6-2-4.6-1.6-.6-3-1.4-3-1.8 0-1 4.6-3.1 6.5-3.1 2.2 0 1.8-2.1-.4-2.7-2.5-.6-2.4-6.6.2-7.1 1.8-.4 2.3-2.7.7-3.7-.6-.4-.4-1.7.5-3.5 1.1-2.1 2-2.7 3.5-2.3 2.4.6 2.6 3.1.5 5.9-1.9 2.6-1.9 3.4.3 3.4 1 0 3.1 1.3 4.7 3 1.6 1.6 3.4 3 4.2 3 .7 0 1.7.9 2.2 1.9.8 1.4.7 2-.4 2.5-2 .7-1.9 2.4.3 2.9 1.2.3 1 .5-.8.7-1.4.1-3.4.5-4.4.9-1.8.7-1.7.9 1.3 2.7 2.5 1.5 3.1 2.4 2.6 4.1-.6 2.7.8 3.7 3.3 2.2 2.2-1.4 5.6-.5 4.9 1.4-.2.7-2.1 1.2-4.3 1.2-2.9 0-4 .4-4.2 1.7-.3 1.8 1 2.3 5.1 1.9.9-.1 1.7.3 1.7.9 0 .6.4.9.9.6 1.8-1.1 4.2.6 3.9 2.8-.2 1.7.2 2.1 2.6 2.1 3.2 0 4.1 1.2 2.7 3.4-.7 1.1-1.3 1.2-2.3.3-.8-.6-2.3-1.1-3.3-1-1.1 0-2.7-.1-3.5-.3-1.2-.3-1.5 1-1.5 7.3 0 7.5.6 9.5 1.9 6.3.3-.8 1.5-1.5 2.6-1.5s2-.6 2-1.4c0-1.8 3.1-2.9 5.6-1.9 1.7.6 1.6.8-.6 1.3-3.4.8-3.2 3.4.2 3.7 3.2.2 5.9-2.4 3.8-3.7-.9-.5-.2-.8 2.1-.7 3.1.2 3.4.5 3.7 3.7.2 1.9.8 3.9 1.4 4.5.6.7.9.2.8-1.5-.4-4.3-.1-5 2.1-5 1.9 0 2 .4 1.5 5.5-.5 5.6 0 6.5 2.3 4.2 1-1 1.5-.8 2.7.8 1.3 1.7 1.6 1.8 2.4.5 2-3.2.2-6.2-2.5-4-1.1.9-1.6.7-2.5-1-1.2-2.3-.1-3.1 3.5-2.7 1.6.2 2-.4 2-2.8 0-2.8-.3-3-4-3.1-5.9-.3-14.5-2.1-16.1-3.5-1.2-1-1-1.5 1.6-3 3.5-2.1 4.2-5.4 1-4.6-2.3.6-2.7-1.5-.6-3.2 1-.8 1.6-.9 2.1-.1.3.5 1.5 1 2.7 1 1.1 0 2.2.8 2.5 2 .6 2.2 1.8 2.6 2.8 1 .9-1.5 4.2-1.2 4.8.4.4 1-.2 1.6-1.6 1.8-4.5.6-2.2 4 3.6 5.3 1.5.3 2.7 1.2 2.7 2s.8 1.5 1.8 1.5c1.2 0 1.3.3.5.8-2.2 1.4.6 8.1 3.6 8.8 2.4.5 8.2 2.5 8.9 3 .2.1-.1 1-.6 2.1-3.7 7.4-4.3 9.3-3.7 11.2.4 1.4.1 2.3-.9 2.7-2 .8-2.1 2.4-.1 2.4.8 0 2.2-1.5 3.1-3.3.9-1.7 2-3.4 2.3-3.7.4-.3 1.3-1.9 2-3.7.9-2.3 1-3.6.2-5.2-1-1.8-.9-2.1 1.1-1.8 1.4.1 2.3-.4 2.6-1.5.4-2-3.6-4-7.8-4-5.3 0-13.1-15.8-9-18.3 2.1-1.3 4.1 2.4 3.4 6.1-.4 2.4-.2 3.3 1.2 3.8 1.8.7 3.7-1.1 2.7-2.7-.3-.5.7-1.9 2.3-3.2 2.4-1.9 2.6-2.5 1.5-3.8-2.8-3.4 1.4-5 4.4-1.7 1.5 1.6 1.5 2 .3 2-.8 0-2.4 1.7-3.6 3.9-2.3 4-2.8 7.1-1.3 7.1.4 0 2.5 1.1 4.5 2.5 3.5 2.4 5.6 2.6 5.6.4 0-.5-.6-.9-1.4-.9-.8 0-1.3-1-1.3-2.5 0-1.4.3-2.5.8-2.5s.9.9.9 2c0 1 .9 2.4 1.9 3 1.1.5 2.2 1.9 2.6 2.9.8 2.7 3.3 1.6 3.7-1.6.4-3.7 3-5.1 6.3-3.3 2.4 1.3 2.8 1.3 4-.3.7-.9 1-2.8.7-4.2-.3-1.8 0-2.5 1.2-2.5 2 0 3.1-4.2 1.7-6.8-.6-1.1-.7-2.2-.4-2.6 1-1 3.8-.7 5.1.6.6.6 2.4 1.2 3.9 1.4 2.4.2 5.8.7 8.4 1.3.4 0 .6.7.5 1.5 0 .8 1.5 2.5 3.4 3.8 2.8 1.9 3.6 3.1 3.8 6.1.2 2.8 0 3.7-1.2 3.7-.9 0-1.6-.5-1.6-1.2 0-.9-.3-.9-1.2 0-2.3 2.3-4 1.4-3.8-2.1.1-1.7.2-3.7.1-4.3-.1-1.4-5.4-2.6-7.6-1.8-2.1.8-1.9 3.4.3 3.4 1.9 0 4.2 1.8 4.2 3.2 0 .4-.9.8-2 .8s-2-.3-2-.8c0-.4-1.5-.7-3.4-.7s-3.2.2-3 .4c.2.2-.1 1-.7 1.8-.9 1-.7 1.3.9 1.3 1.1 0 3.5.7 5.5 1.5 1.9.8 4.9 1.3 6.5 1 2.5-.3 3.3.1 3.9 1.8.4 1.2.6 2.6.5 3.1-.2.4 0 1.7.4 2.8.6 1.9.6 1.9 3-.3 1.6-1.5 2.4-3.4 2.4-5.5 0-1.7.7-3.7 1.5-4.4 1.1-.9 1.4-2.2.9-4.6-.4-2.4-.1-4.2 1-5.9 1-1.5 1.4-3.5 1.1-4.8-.4-1.6 0-2.9 1.4-4.1 2-1.8 2-1.8 2.7.9.4 1.6.2 3.6-.5 4.6-.6 1-1.1 3.8-1.1 6.1 0 2.4-1.1 7.7-2.4 11.8-1.3 4.1-3.2 11.1-4.1 15.5-.9 4.4-2.5 11.8-3.6 16.5-2.2 9-3.5 15.3-4.4 21-.3 1.9-1.1 5.1-1.7 7.1-.7 2.6-.7 4.2.1 5.5 1 1.8 1.1 1.8.9-.1-.3-4.4.3-6.5 1.7-6.5.9 0 1.5-.9 1.5-2.1 0-1.2.8-2.8 1.7-3.5 1-.7 1.8-2 1.8-3 0-1.1 1-2 2.4-2.4 3.1-.7 4-3 1.2-3-2.7 0-2.7-1.6-.1-2.3 1.3-.3 2-1.4 2-2.9.1-2.3 3.9-10.3 4-8.2 0 .7.7 1.5 1.6 1.8 1.3.5 1.5.1 1-1.9-.4-1.4-.2-3.4.4-4.5.9-1.6.8-2-.5-2-2.2 0-1.9-2.1.4-2.7 1.4-.4 2.1-1.5 2.3-4.1.2-2.9.8-3.7 2.8-4.2 1.9-.5 2.6-1.3 2.8-3.9.2-2.2-.2-3.7-1.3-4.5-1.5-1.1-1.6-1.5-.4-3.5 1.1-1.8 2.1-2.1 4.4-1.8 1.8.3 3.9-.1 5-1 1.9-1.4 1.9-1.5.2-2.8-1-.7-1.4-1.6-.9-1.9 1.9-1.2 1.9-7.6 0-9.3-1-.9-1.8-2.4-1.8-3.5 0-1.5.8-1.8 4.6-1.8 2.5 0 4.3-.4 4-.8-.2-.4-.1-1.4.4-2.2.7-1.2 1.2-1.1 3 .5 1.7 1.5 2.3 1.6 2.9.6.7-1 .9-.9 1.4.3.4 1 1.7 1.4 4.4 1.2 3.1-.2 3.8-.6 3.5-2.2-.1-1-.3-3.3-.4-5.1-.1-1.8-.8-3.5-1.5-3.7-1.7-.7-2.1.3-1.8 4.6.4 5-1.8 5-3.1.1-.8-3.5-1.3-3.9-5.9-4.9-3.7-.8-4.5-1.3-3.2-1.9.9-.4 2.5-.4 3.4-.1 2 .8 8.5-2.4 8-3.9-.2-.5-1.7-1.1-3.3-1.3-3.9-.5-4.8-1.6-3.2-4.1 1.6-2.6.1-5.4-3.1-5.9-1.4-.2-2.1-1.1-2.1-2.6 0-3.1 4-12.1 4.9-10.8.6.9 5.5 1.7 9.4 1.3 2.8-.2 1.9-2.9-1.2-3.6-2-.4-2.8-1.1-2.4-2.1.3-.9-.2-1.4-1.7-1.4-1.4 0-2.4.8-2.7 2.1-.5 1.6-1.1 1.9-3.3 1.4-2.1-.5-3.1-.2-3.8 1.1-1.2 2.2-3.2.9-3.2-2.1 0-1.3-.4-2.7-1-3-1.9-1.2-1-3.3 2-4.5 3.4-1.4 4-3 1-3-1.1 0-3.4-.9-5.1-1.9-2.8-1.7-2.9-2-1.3-2.9 1.1-.6 1.7-1.2 1.4-1.4-.3-.2-1.8-1.2-3.3-2.1-1.5-1-2.5-2.2-2.2-2.8.9-1.3-1.7-7-3-6.5-.5.2-.9 1.2-.7 2.2.4 3.2.2 15.6-.4 16.5-.2.4.1 1.7.8 2.8.9 1.5 1 2.3.1 3.2-.6.6-.9 2.7-.7 4.7.4 3.3-1.4 21.2-3.2 32.7-.7 4.4-2.2 5.9-4.1 4.4-2.1-1.8-5.3.1-6.9 4.2-1.3 3.1-2.1 3.9-4.2 3.9h-2.5l2.1-2.3c1.4-1.5 2.2-3.6 2.1-5.8 0-3.4 0-3.4-1.6-1.2-2.3 3.3-3.3 2.8-3.3-1.6 0-4.9 2.5-7.5 4.6-4.6 1.1 1.5 1.1 2 .1 2.7-.8.5-.5.8 1 .8 1.2 0 2.3-.6 2.6-1.3.3-.9.8-.9 2.1.2 1.4 1.2 2.1 1.2 4.2.1 1.7-1 2.3-1.9 1.8-2.9-1.6-3.6-1.6-8.2 0-10 .9-1 1.3-2 1-2.3-.9-1-1.2-7.8-.3-7.8.5 0 .9-.7.9-1.5 0-.9-.9-1.5-2.1-1.5-1.7 0-2 .5-1.6 2.1.5 2 .3 2.1-3.6 1.6-2.3-.3-4.3-1.1-4.5-1.6-.4-1.3-3.2-1.5-3.2-.2 0 .5.7 1.4 1.5 2.1 2.1 1.7 1.9 3-.4 3-2 0-3.1-1.8-3.1-5 0-3-1.8-3.3-6.2-1-3.3 1.7-4.3 1.9-4.9.8-.5-.7-.6-2-.3-2.8 1.3-3.1 1.6-5.8.6-6.4-.7-.4-.5-1.7.5-3.6 1.8-3.7 1.1-6-1.7-6-2.4 0-2.4-.3-.3-4.8 1.2-2.6 1.4-3.7.5-4-.7-.2-1.2-1.2-1.2-2.2 0-2.7-1.7-3.4-2.5-.9-.4 1.3-.1 2.7.9 3.8 1.5 1.6 1.5 1.9.1 3.1-.8.7-1.4 2.4-1.3 3.9.2 2.1-.2 2.7-2 2.9-2.3.4-2.4.2-1.9-5.7.4-5 .2-6.3-1.4-7.7-1-.9-1.9-2.7-1.9-4 0-1.3-.4-2.5-.9-2.8-.5-.3-.8 1.2-.7 3.4 0 2.2.4 4 .8 4 2.2 0 .3 2-2.8 3-4.3 1.4-5.2.8-3.5-2.4 1.5-2.7.8-4.6-1.5-4.6-.9 0-2.6-1.3-4-2.9-1.8-2.2-3.6-3.1-7.5-3.6-6.5-.9-8.5.6-3.9 3 2.1 1.1 3.6 1.3 4.2.7 1.2-1.2 7.3 2.1 8.2 4.3.7 1.9-1.6 2.5-2.9.8-.6-.8-2.5-1.5-4.3-1.5-1.8-.1-3.2-.5-3.2-1s-1.3-.7-2.8-.3c-3.7.8-5.2-1.1-4.9-6 .1-2.3-.3-4-1-4.2-.9-.3-1.3.7-1.3 3 0 3.9-1.3 4.9-4.9 3.5l-2.4-.9 2.1-1.9c2-1.9 2.1-6 .1-6-.5 0-.9-.9-.9-2 0-2.9-2.7-2.5-3.4.5-.6 2.3-2.6 3.6-2.6 1.7 0-.4-1.5-1.6-3.2-2.7-3.7-2.1-7.8-6.1-7.8-7.6 0-1.6 3.6-4.5 5-4.1.9.3 1.1-.1.7-1.1-.7-2 1.8-4.1 3.9-3.3 1 .4 1.4 1.6 1.2 3.5-.2 2.7 1.5 6.1 3.3 6.1.4 0 1.1-.9 1.4-2.1.4-1.1 1.8-2.4 3.1-2.9s2.4-1.4 2.4-2c0-.5.7-1 1.5-1 1.9 0 1.9 1-.2 3.9-.9 1.4-1.1 2.1-.5 1.7.6-.3 1.3-.2 1.7.4.4.6 2.2.7 4.4.4 3.3-.5 4.1-.3 5.9 2 1.8 2.3 2.3 2.5 4 1.5 1.2-.7 2.7-.9 3.8-.4 1.1.5 2.3.7 2.8.6.4-.1 1.3.5 2 1.2 1.6 2 4.7 3 4.5 1.4-.1-.6.1-2 .6-3 .4-1.1.3-2.3-.4-3-.8-.8-1.1-.7-1.1.6 0 2.1-3.3 2.3-4.9.3-.7-.8-1.9-1.2-2.9-1-1.6.4-5.2-1.1-4.2-1.8.3-.2 2-1.1 3.8-2 3.1-1.6 3.2-1.6 3.2.2 0 1.5.7 2 2.5 2 2.7 0 3.2-.9 1.3-2.8-.9-.9-.6-1.2 1.6-1.2 2.6 0 2.8.3 2.4 3.1-.4 2.4-.1 3.3 1.3 3.6.9.3 1.9 1.3 2.2 2.4.6 2.3 2.7 2.5 2.7.3 0-.8-.5-2.4-1.1-3.6-.9-1.6-.7-2.4 1-4.2 1.5-1.6 1.8-2.5 1-3.3-.7-.7-.8-1.7-.3-2.5.5-.7.7-2.2.5-3.2-.1-1 .3-3 1-4.3 1.9-3.6-.5-7.7-4.8-8.1-2.4-.2-3.4-1-4.3-3.3-.9-2.1-1.6-2.7-2.3-2-2 2-4.7 1.3-4.7-1.3 0-3.1-2.2-5-3.8-3.4-1.5 1.5-4.7-1.3-4.7-4 0-1.8-.5-1.9-4.3-.7-1.8.5-2.5.1-4-2.4-1.1-2-2.5-3.1-3.9-3.1-3.5 0-5.3-1.1-5.4-3.4-.1-1.6-.2-1.7-.6-.4-.5 2.2-2.1 2.2-4.7.3-1-.8-2.3-1.2-2.7-.9-1.2.7-5.1-1.5-4.4-2.6.3-.5-.8-.8-2.4-.8-3.7.1-6.1-1.7-5.8-4.4.1-1.2-.8-2.7-2.3-3.6-1.3-1-2.1-1.2-1.7-.6.4.7-.3 1.4-1.9 1.8-1.5.4-2.7.6-2.8.4-1.8-4.2-3.5-6.3-5.1-6.3-2.6-.1-4.7-1.4-4.2-2.8.5-1.5-7.2-8.7-9.3-8.7-.9 0-3-1.2-4.5-2.6-1.5-1.4-3.8-3-5.2-3.5-1.3-.5-3.2-2.3-4.1-4.1-1.6-2.9-3.4-5.2-11.2-13.6-1.6-1.8-3-3.9-3-4.7 0-.7-1.3-1.9-3-2.7-1.7-.7-3.4-2.5-4-4.2-.5-1.6-2-3.8-3.2-5-1.3-1.1-3.1-3.4-4.2-5l-1.9-2.9-1.4 2.4c-1.4 2.4-1.4 2.4-.9-.7.5-2.9-1.9-11.2-3.7-13-.4-.4-.7-1.8-.7-3 0-1.3-.9-3.8-2-5.6-1.1-1.8-2-3.1-2-2.8zm59.1 83.6c1.1 1.4 1 1.5-1.1 1.2-1.3-.1-2.5-.9-2.8-1.6-.5-1.7 2.3-1.5 3.9.4zm-20.2 5.8 2.3 2.4-2.2.7c-2.6.8-2.6.8-3.5-2.8-.9-3.3.4-3.5 3.4-.3zm5.1 3.6c0 .5-.4 1-1 1-.5 0-1-.5-1-1 0-.6.5-1 1-1 .6 0 1 .4 1 1zm41.5 4.9c.7 1.2-1.2 2.4-2.5 1.6-1.1-.7-.4-2.5 1-2.5.5 0 1.1.4 1.5.9zm-35 1.1c.8 1.3-.5 1.3-2.5 0-1.3-.8-1.3-1 .2-1 .9 0 2 .4 2.3 1zm7.5 4.6c0 .8-.5 1.2-1 .9-.6-.4-.8-1.1-.5-1.6.9-1.4 1.5-1.1 1.5.7zm35 3c0 1.6-1.6 1.9-2.5.4-.8-1.3.4-3.2 1.6-2.5.5.4.9 1.3.9 2.1zm13.2-.4c-.5.5-2 .8-3.3.6l-2.4-.5 2.5-1c2.8-1.2 4.7-.6 3.2.9zm-36.1 5.1c-.1 1.2-1.5.9-1.9-.4-.3-.6.1-1 .8-.8.6.3 1.1.8 1.1 1.2zm15.7 7.9c1.7 1.4 1.5 2.8-.3 2.8-1.4 0-5.5-3.4-5.5-4.6 0-.7 4.2.6 5.8 1.8zm-53.2 3.4c-.5 1.3-1 1.4-1.8.6-.6-.6-.8-1.8-.4-2.8.5-1.3 1-1.4 1.8-.6.6.6.8 1.8.4 2.8zm17.4 2c0 .8-.4 1.2-1 .9-.5-.3-1-1-1-1.6 0-.5.5-.9 1-.9.6 0 1 .7 1 1.6zm43.1 7.4c2.2 1.3 2.5 3 .4 3-.8 0-1.9-.9-2.5-2-1.2-2.3-.7-2.5 2.1-1zm-49.2 2.9c.9.6 1 1 .2 1.6-1.5.8-4.1-.1-4.1-1.5 0-1.2 2-1.3 3.9-.1zm33.7 3.1c.3 3.3.3 3.4-1.1 1.6-1.8-2.3-2-5.9-.4-5.4.7.2 1.3 1.9 1.5 3.8zm-26.6-.4c0 .8-.4 1.2-1 .9-.5-.3-1-1-1-1.6 0-.5.5-.9 1-.9.6 0 1 .7 1 1.6zm35.5-.6c.3.5-.1 1-.9 1-.9 0-1.6-.5-1.6-1 0-.6.4-1 .9-1 .6 0 1.3.4 1.6 1zm12.5 1.1c0 .5-.4.9-1 .9-.5 0-1-.7-1-1.6 0-.8.5-1.2 1-.9.6.3 1 1 1 1.6zm41.4 1.2c-.7 2-3.4 2.3-3.4.4s2.2-3.9 3.2-2.9c.5.5.6 1.6.2 2.5zm-36.4.7c0 .5-.9 1-2.1 1-1.1 0-1.7-.5-1.4-1 .3-.6 1.3-1 2.1-1s1.4.4 1.4 1zm10.6.1c1 1.7-1.3 3.6-2.7 2.2-1.2-1.2-.4-3.3 1.1-3.3.5 0 1.2.5 1.6 1.1zm7.8 1.7c.2.4-.3 1.3-1.3 1.9-2 1.3-4.7.1-3.7-1.6.8-1.3 4.2-1.5 5-.3zM208 178c0 .5-.5 1-1.1 1-.5 0-.7-.5-.4-1 .3-.6.8-1 1.1-1 .2 0 .4.4.4 1zm15.7 4.7c-.3.3-1.1.2-1.7-.2-.8-.5-.7-1.1.2-2.2 1.2-1.5 1.3-1.4 1.6.1.2 1 .1 2-.1 2.3zm-6.9-.9c.3.9-.2 1.3-1.4 1-.9-.1-1.9-.9-2.2-1.6-.3-.9.2-1.3 1.4-1 .9.1 1.9.9 2.2 1.6zM190 187c0 1.8-.2 1.9-2 .8-1.1-.7-2-1.6-2-2 0-.5.9-.8 2-.8 1.3 0 2 .7 2 2zm12.3 2.1c-1.3 1.3-6.5.8-7-.8-.3-.7.9-1.3 2.9-1.5 3.8-.4 5.7.7 4.1 2.3zm9.6-.2c.9.6 1 1 .2 1.5-1.6 1-7.3-.3-6.5-1.5.7-1.1 4.5-1.2 6.3 0zm18.6 3.1c1.1 1.7-.5 3.2-2.1 1.9-.7-.6-1.1-1.5-.8-2 .7-1.2 2.1-1.1 2.9.1zm-34.1 2.6c.8 3.2-.6 5.1-2.2 3.1-1.2-1.4-.5-5.7.8-5.7.4 0 1.1 1.2 1.4 2.6zm13.4.5c5.5-.3 5.5 2.2 0 2.7-3 .3-3.7.8-4.5 3.5-.8 2.8-1.3 3.2-4.1 2.9-3.1-.3-3.2-.2-3.2 3.2 0 4.4-2.5 4.9-4.1.9-1.7-4.5-.8-6.8 2.6-6.9 5.2-.1 5.5-.3 5.5-3.2 0-3.3.8-4.4 2.3-3.5.6.4 3.1.6 5.5.4zm32.2 1c-4.3 1.2-5.4 1.1-4.1-.5.7-.8 2.2-1.1 3.9-.8l2.7.6-2.5.7zm-51.7.4c-.4 1.5-3.6 1.2-4.1-.3-.3-.9.3-1.3 1.9-1 1.3.1 2.3.7 2.2 1.3zm22 3.1c-.7.3-.9 1.2-.6 2 .6 1.6-.5 1.8-2.7.4-1.3-.9-1.3-1.1 0-2 .8-.5 2.2-.9 3-.9.9 0 1.1.2.3.5zm16.2.5c-.4.6-1 .8-1.3.5-.3-.4-1.6.1-3 1-1.6 1.1-2.7 1.3-3.4.6-.7-.7 0-1.4 2.3-2 4.6-1.4 6.1-1.4 5.4-.1zm13.8 5.2c-.7 4.2-2.1 5.6-3.3 3.7-.7-1-.5-1.9.6-2.7.9-.6 1.3-1.6.9-2.2-.8-1.4.3-3.3 1.5-2.6.5.3.7 2 .3 3.8zm-52-2.2c-.8.8-1.6.8-3 0-1.6-.9-1.4-1 1.2-1.1 2.1 0 2.6.3 1.8 1.1zm39.7.9c0 .5-.5 1-1.1 1-.5 0-.7-.5-.4-1 .3-.6.8-1 1.1-1 .2 0 .4.4.4 1zm-40 3c0 1.3-.6 2-1.7 1.9-1.1 0-1.3-.3-.5-.6.6-.2 1.2-1.1 1.2-1.9 0-.8.2-1.4.5-1.4s.5.9.5 2zm67.9 2.1c-1.5.9-3.2.2-2.4-1.1.3-.5 1.3-.6 2.1-.3 1.2.4 1.3.8.3 1.4zm-7.4 1.9c.4.6-.7 1-2.5 1s-2.9-.4-2.5-1c.3-.6 1.5-1 2.5-1s2.2.4 2.5 1zm17.5 0c0 .5-.7 1-1.6 1-.8 0-1.2-.5-.9-1 .3-.6 1-1 1.6-1 .5 0 .9.4.9 1zm-78.2 4.3c.2 1-.3 1.7-1.2 1.7-1 0-1.6.9-1.7 2.2-.1 1.9-.2 1.8-1-.7-.5-1.7-.7-3.6-.4-4.3.7-1.9 3.9-1.1 4.3 1.1zM275 214c0 .5-.7 1-1.5 1s-1.5-.5-1.5-1c0-.6.7-1 1.5-1s1.5.4 1.5 1zm-32.4 2.4c1.5 1.2 1.7 1.7.6 2.8-1 1-1.4.9-1.8-.9-.3-1.2-1.3-2.4-2.3-2.6-1.3-.4-1.4-.5 0-.6.8 0 2.4.5 3.5 1.3zm33.9 3.6c.8 1.3-1.5 1.3-3.5 0-1.2-.8-1.1-1 .7-1 1.2 0 2.5.4 2.8 1zm-36.5 2c0 .5-.5 1-1.1 1-.5 0-.7-.5-.4-1 .3-.6.8-1 1.1-1 .2 0 .4.4.4 1zm19 .5c.9 1.1 1 1.5 0 1.5-.8 0-.9 1-.5 2.9.9 4.1-.7 4.6-5.1 1.6-2-1.4-4.3-2.5-5-2.5-.7 0-1.6-.5-2-1.1-.7-1.2 2-.8 6 .7 1.1.4 1.9-.2 2.6-2 1.1-3 2.2-3.3 4-1.1zm-70.2 3.7c-.7 1.9-3.8 2.2-3.8.4 0-1 .9-1.6 2.1-1.6 1.2 0 1.9.5 1.7 1.2zm103.6 1.4c.5 1.4.4 1.5-.9.4-1.7-1.4-1.9-2-.6-2 .5 0 1.2.7 1.5 1.6zm-21.2 2c-.4 1.5-8.5 1.1-9-.4-.3-1 .7-1.3 4.4-.9 2.7.2 4.8.8 4.6 1.3zm-99.5 3.6c-.3.7-.5.2-.5-1.2s.2-1.9.5-1.3c.2.7.2 1.9 0 2.5zm86.3.2c0 .8-.5 1.8-1 2.1-1.7 1.1-.7 4.9 1.5 5.6 1.8.6 1.8.7.3 1.3-1.1.5-2.8-.1-4.8-1.5-2.7-2-2.9-2.5-1.6-3.5.9-.6 1.6-1.4 1.6-1.8 0-1 2.3-3.5 3.3-3.6.4 0 .7.6.7 1.4zm22 1.1c-.7.8-1.9 1.5-2.6 1.5-.8 0-1.4-.7-1.4-1.5 0-1 1-1.5 2.6-1.5 2.2 0 2.5.2 1.4 1.5zm10.9 1.6c2 1.6 2.1 2 .7 2.5-2.1.8-2 4 .2 5.4 1.3.8 1.1.9-1.3.4-5.6-1.1-6.5-1.5-6.5-2.9 0-.8.8-1.8 1.7-2.3 1.6-.9 1.6-1.1 0-2.7-4-3.9.2-4.3 5.2-.4zm-22.9 1.3c0 .3-.4.8-1 1.1-.5.3-1 .1-1-.4 0-.6.5-1.1 1-1.1.6 0 1 .2 1 .4zm70.7 4.8c-.3.8-.6.5-.6-.6-.1-1.1.2-1.7.5-1.3.3.3.4 1.2.1 1.9zm-62 1.3c-1.2 2.5-5.7 3.6-5.7 1.4 0-1.5 3.1-3.8 5.2-3.9 1.4 0 1.4.4.5 2.5zm-9.3-.9c2.2.8 2 3.3-.1 2.9-1-.2-2.1-.4-2.5-.4-1.1-.1-1-3.1.1-3.1.5 0 1.6.3 2.5.6zm37.3 4.1c1.4 3.5 1.6 3.6 2.9 1.9.9-1.3 2-1.7 3.6-1.3 1.6.5 3-.1 5-2 1.5-1.5 3-2.4 3.3-2.1 1.1 1-2.7 6.8-4.5 6.8-2.9 0-5 1.1-5 2.6 0 .8.9 1.4 2 1.4s2 .4 2 1c0 .5.7 1 1.5 1s1.5.7 1.5 1.5c0 2-2 1.9-3.6-.3-1-1.4-1.6-1.5-3.2-.5-2.5 1.5-4.4.2-4.4-3.1 0-1.5-.6-2.6-1.4-2.6-.8 0-1.4.9-1.4 2.1 0 1.3-1 2.3-3 3-3.9 1.4-4.2 4.2-.3 3.3 2.5-.7 2.6-.6 2.1 2.7-.4 2.2-.1 4.2.8 5.4.8 1 1.4 2.2 1.4 2.6 0 1.2-6.3 2-7.4.9-.5-.5-2-1-3.3-1-2.1 0-2.3-.5-2.3-4.6 0-4.5 1.3-8.3 3.3-9.6.7-.4.8-1.4.1-3-1.5-3.5-.6-7.8 1.6-7.8 1 0 2 .7 2.4 1.5 1 2.6 2.9 1.7 2.2-1-1-4.1 2.3-3.1 4.1 1.2zM253 245c0 .5-.7 1-1.5 1s-1.5-.5-1.5-1c0-.6.7-1 1.5-1s1.5.4 1.5 1zm27 .5c-.7.8-1.8 1.5-2.4 1.5-.6 0-.2-.7.8-1.5 2.5-1.9 3.2-1.9 1.6 0zm8.4 1.1c2.1.8 2.1 3 0 3.8-2.1.8-3.4-.1-3.4-2.5 0-2 .8-2.3 3.4-1.3zm-35.4 3.9c0 .8-.4 1.5-1 1.5-.5 0-1-.7-1-1.5s.5-1.5 1-1.5c.6 0 1 .7 1 1.5zm15.5.5c.3.5-.1 1-.9 1-.9 0-1.9 0-2.3.1-.4 0-.9-.4-1.1-1-.5-1.4 3.5-1.4 4.3-.1zm-62.1.6c1.9.7 2.1 3 .4 3.7-.7.2-2.1 0-3.1-.5-1.5-.7-1.6-1.2-.6-2.4 1.3-1.6 1.2-1.6 3.3-.8zm66.6.4c0 .5-.4 1-1 1-.5 0-1-.5-1-1 0-.6.5-1 1-1 .6 0 1 .4 1 1zm15.5 3c.9 1.5-1.4 4-3.6 4-1.9 0-2.7-2.9-1.2-4.3 1-1.1 4.1-.8 4.8.3zm-68.5 3c0 .5-.5 1-1.1 1-.5 0-.7-.5-.4-1 .3-.6.8-1 1.1-1 .2 0 .4.4.4 1zm-10.4 2.5c1.2 3.2-.2 3.7-3.1 1.2l-3-2.6 2.8-.1c1.5 0 3 .7 3.3 1.5zm27 3c.3 1.8.2 1.9-1 .3-.9-1.3-1.6-1.4-2.4-.6-1.2 1.2-6.2.3-6.2-1.3 0-.6 1.9-.9 4.7-.7 3.7.2 4.7.7 4.9 2.3zM341 262c0 .5-.7 1-1.5 1s-1.5-.5-1.5-1c0-.6.7-1 1.5-1s1.5.4 1.5 1zm-90.5 2.1c.8 2.5-.7 4.4-2.9 3.6-1.2-.5-1.3-1-.3-3.1 1.5-3.1 2.4-3.3 3.2-.5zm35.9-1.5c2.1.8 2.1 4 0 4.8-2.2.9-3.4-.1-3.4-3 0-2.5.7-2.8 3.4-1.8zm-69.2 7c.4 3.6-.4 5-2.2 3.9-1.1-.7-1.4-5.8-.3-6.8 1.4-1.4 2.1-.6 2.5 2.9zm8.3-2.6c.3.5 2.5.9 4.9.8 5.3-.1 8.8 1 8.3 2.5-.8 2.3-16.7-.5-16.7-2.9 0-1.6 2.6-1.9 3.5-.4zm124.5 2.1c0 .5-1.2.9-2.7.9-2.7-.1-2.7-.1-.9-1.5 1.9-1.4 3.6-1.2 3.6.6zm-68 2.9c-.8.5-1.9 1-2.5 1-.5 0-.3-.5.5-1s2-1 2.5-1c.6 0 .3.5-.5 1zm-107.4 5.7c-1 1-1.9-.5-1-1.8.6-1.1.8-1.1 1.2 0 .2.7.1 1.5-.2 1.8zm107.2.1c.2.7-.4 1.2-1.3 1.2-1.3 0-1.6.6-1.1 2.4.4 1.6 0 2.9-1.4 4.1-1.9 1.8-2 1.7-2-.9 0-5.2 4.5-10.5 5.8-6.8zm-14.4.1c.3.5 1.6.7 2.7.4 1.9-.5 2-.3 1.4 1.8-1 3.1-1.7 3.7-2.2 2.1-.3-.7-1.6-1.7-2.9-2.2-1.3-.5-2.4-1.4-2.4-2 0-1.2 2.7-1.3 3.4-.1zm-58 4.1c3.3 1.2 3.4 4 .3 4-2.8 0-4.7-1.7-4-3.6.6-1.7.5-1.7 3.7-.4zm59.6 5.4c0 .3-.4.8-1 1.1-.5.3-1 .1-1-.4 0-.6.5-1.1 1-1.1.6 0 1 .2 1 .4zm66.5 2.6c.3.5-.1 1-1 1s-1.3-.5-1-1c.3-.6.8-1 1-1 .2 0 .7.4 1 1zM37.3 39.1c-1.4 1.4-.6 3.9 1.3 3.9.8 0 1.4-1 1.4-2.5 0-2.7-.9-3.2-2.7-1.4zM89.9 40.7c-1.3 1.6-1.2 1.7.4.4 1.6-1.3 2.1-2.1 1.3-2.1-.2 0-1 .8-1.7 1.7zM53.7 42.7c-.2.5-.7 2-1.1 3.5-.5 2.1-.3 2.8.9 2.8 1.1 0 1.5-1 1.5-3.5 0-3.4-.4-4.3-1.3-2.8zM83.9 45c-1.9 1.6-2.9 2.9-2.4 2.9 1.2 0 6.9-4.8 6.3-5.4-.2-.3-2 .9-3.9 2.5zM45 48c0 1.1.5 2 1 2 .6 0 1-.9 1-2s-.4-2-1-2c-.5 0-1 .9-1 2z"/><path d="M29.5 98.6c-12.9 1-17.5 1.6-17 2.5.4.5 1.7.9 3.1.9 1.7 0 2.4.5 2.4 1.9 0 1.1-.4 2.3-1 2.6-1.7 1.1-1.1 2.5 1.5 3.7 1.4.6 2.5 1.9 2.5 3 0 1 .7 1.8 1.6 1.8.9 0 1.4.7 1.2 1.7-.2.9-.6 1.5-.9 1.2-.9-.6-3.9 2.2-3.9 3.8 0 .7 1 1.7 2.3 2.2 1.5.6 2.3 1.7 2.4 3.7.1 1.6.7 5.6 1.3 8.9 1.7 9.1 1.1 21.7-1.1 23.1-1.4.8-1.1 2.4.5 2.4.7 0 1.6.9 1.9 2.1.4 1.6.2 1.9-1.1 1.3-.9-.4-3.2-.8-4.9-.8-1.8 0-3.3-.3-3.3-.8 0-.4.7-.8 1.5-.8 1.9 0 1.9-1.6 0-2.3-.8-.4-2.1-2.1-2.9-3.9l-2.4-4.8c-2.8-4.7-7.2-15.4-7.2-17.4 0-2.3-1.6-3.6-4.6-3.6-1.2 0-1.4 3.6-1.4 21.4 0 11.8.4 21.6.9 21.8 2.9 1.1 6.9 14.7 13.2 44.8 3 14.7 7.6 31.4 9.8 36.4 1.2 2.5 2.1 4.7 2.1 5 0 3.7 38 62.2 48.1 74.1 1 1.1 6.5 8 12.3 15.3L96.9 363l-5.8 2.9c-17 8.6-27.7 21.1-33.3 39.1-1.9 6.2-2.3 9.6-2.3 20 .1 19.9 5 32.7 16.6 43.4 11 10.2 24.3 15 51.8 18.6 8.5 1.1 17.3 2.5 19.5 3.1 8.9 2.4 12.8 7.6 12.9 17.1 0 8.2-3.5 13.3-11.8 16.8-5.4 2.2-7.3 2.5-19.5 2.4-18.5-.1-33.2-3.8-42.4-10.9l-4.3-3.3-16.6 16.5-16.5 16.5 4 3.6c16.6 15 36.1 21.9 67.3 23.7 20.1 1.3 39.5-2.3 55.5-10.1 7.8-3.9 11-6.2 17.6-12.8 13.3-13.4 17.5-24.4 17.5-46.4 0-16.4-2.4-26.4-8.3-35.3-10.9-16.3-25.9-23-61.8-27.4-15.9-2-22.1-3.8-26.5-7.6-7-6.1-6.9-15.1.1-22.9 6.1-6.7 18.7-9.7 23.3-5.6 1.2 1.1 2.1 2.5 2.1 3.3 0 .7.5 1.3 1.1 1.3.7 0 .5-1-.5-2.5-.9-1.4-1.5-2.5-1.4-2.6.2-.1 2.6-.3 5.5-.5 8.3-.7 17.6 2 24.8 7.1l6.2 4.4 16.2-16.2 16.2-16.2-5.8-5.3c-5.5-5.1-23.8-15.2-27.5-15.2-1.6 0-5.8-3.6-5.8-5 0-.5.5-1.2 1-1.5.6-.3.7-1.7.4-3.1-.7-2.6 1.7-8.6 4.6-11.9 1-1.1 2-3.4 2.2-5 .2-2 1.1-3.3 2.6-4 1.2-.5 2.2-1.6 2.2-2.3 0-1.3-2.6-5.1-6.6-9.6-.9-1-10-18.3-20.1-38.5-20.2-40-24.8-48.7-26.3-49.6-1.1-.7-.5 1.3 3.5 10 1.5 3.3 3.8 8.9 5.1 12.4 2.1 5.7 2.2 6.5.8 8.6-.8 1.2-1.2 3-.8 3.9.8 2 2.4 2.1 2.4.1 0-.8.6-1.5 1.4-1.5 1.6 0 2.9 2.7 1.7 3.4-.5.3-.6 3.6-.3 7.4.3 5.1 0 7.6-1.2 10-.9 1.8-2 3.2-2.4 3.2-1.9-.1-3.3-2-3-4.1.2-2-.2-2.5-2.7-2.7-1.6-.2-3.9-1.1-4.9-2-1.4-1.3-2-1.4-2.3-.4-.8 2.3-2.3.1-1.7-2.5.6-2.1.3-2.4-1.2-2.1-2.8.5-3.1 6.7-.5 10.9 1.2 1.9 2.1 4.2 2.1 5.2s.6 2 1.4 2.3c.8.3 1.8 2.4 2.1 4.7.4 2.4 2 5.9 3.8 8.1 2.8 3.6 3 4.5 2.9 11-.2 6.6 1.5 14.6 5.1 24.1.7 1.6 1.2 3.2 1.3 3.5.5 3 1.9 6.9 3.1 8.8 1.8 2.9 1.7 2.9-13.2 3.6-6.6.3-14.7 1.2-18 2-8.4 2.1-10.4 2-11.4-.7-.5-1.2-3-4.4-5.5-7-2.5-2.7-4.6-5.4-4.6-6.1 0-.6-1.2-2.3-2.7-3.7-1.6-1.3-4.3-4.5-6.2-6.9-1.9-2.5-4.1-5.2-4.8-6-.7-.8-3.9-5.1-7-9.5s-8.4-11.8-11.7-16.5c-16.3-22.8-23.3-34.9-27.6-47.6-2.5-7.1-2.5-8.2-.2-6.1 1.7 1.5 1.9 1.5 3.5 0 1.4-1.4 1.8-1.4 3.2-.3.9.8 3.3 1.3 5.2 1.2 2.4-.2 3.9.3 4.8 1.5 1.9 2.6 2.7 1.1 1.7-3.3-1.1-5.2-.5-7.3 1.7-6.7 2.2.6 3.5-3.3 2.5-7.1-.3-1.4-.2-3.1.2-3.8 2.1-3.3.7-14.1-2.2-17.8-1.5-1.8-5.4-12.8-5.4-15 0-2.1-6.3-9-8.2-9-1.9 0-10.8-12.2-10.8-14.9 0-3.2 5.3-6 11.5-6 6.6 0 8.5 1.1 5.6 3.1l-2.2 1.5 2.4 1.6c1.8 1.1 2.6 2.8 2.9 6.1.3 2.5 1.8 6.6 3.3 9.1 2.4 4.2 2.8 4.5 4.3 3.1 1.3-1.1 2.2-1.2 3.6-.4 1 .6 1.6.6 1.3.1-.3-.5-1-4.5-1.6-8.9-.9-7.5-1.1-8.1-5-11.4-2.3-2-4.1-4-4.1-4.6 0-.6 1.1-2.1 2.4-3.3 1.4-1.3 4.2-5.2 6.2-8.8 2.1-3.5 5-7.6 6.4-9 7.2-7.2 20.8-9.8 25.4-4.8 1.4 1.5 3.4 2.5 5.2 2.5 3.1 0 9.9 2.2 14.3 4.5 4.9 2.5 8.9 7.7 9.6 12.5 1 6.1 2.1 7.9 4.3 7.3 1.1-.2 4.1.9 6.9 2.6 2.7 1.7 6.8 3.7 8.9 4.5 2.2.7 6.8 2.8 10.2 4.5 3.4 1.7 6.4 3.1 6.8 3.1.3 0-1.4-2.3-3.8-5.1-2.3-2.8-5.6-6.7-7.1-8.7-5.5-7.3-43.4-44.6-51.2-50.4-4.4-3.4-11.1-7.6-14.9-9.4-3.8-1.9-7.5-3.9-8.2-4.5-.7-.6-4.8-2.2-9.1-3.5-7.8-2.5-18.9-3.5-28.8-2.8zM146 293c0 .5-.5 1-1.1 1-.5 0-.7-.5-.4-1 .3-.6.8-1 1.1-1 .2 0 .4.4.4 1zM212.2 112.2c.3.7 1.3 1.5 2.2 1.6 1.2.3 1.7-.1 1.4-1-.3-.7-1.3-1.5-2.2-1.6-1.2-.3-1.7.1-1.4 1zM292 173c0 .5.5 1 1.1 1 .5 0 .7-.5.4-1-.3-.6-.8-1-1.1-1-.2 0-.4.4-.4 1zM308.7 180.7c-.3.5-.2 1.5.2 2.2.7 1 1 1 1.6.1.4-.6.3-1.6-.3-2.2-.5-.5-1.2-.6-1.5-.1zM248.5 183c-.3.5-.1 1 .4 1 .6 0 1.1-.5 1.1-1 0-.6-.2-1-.4-1-.3 0-.8.4-1.1 1zM293 183c0 .5.5 1 1.1 1 .5 0 .7-.5.4-1-.3-.6-.8-1-1.1-1-.2 0-.4.4-.4 1zM256 184.8c0 2.4 3.4 7.2 5 7.2 2.4 0 1.7-2.2-1.7-5.6-2.5-2.6-3.3-2.9-3.3-1.6zM297 185c0 .5.5 1 1 1 .6 0 1-.5 1-1 0-.6-.4-1-1-1-.5 0-1 .4-1 1zM253 188.1c0 .5.5.7 1 .4.6-.3 1-.8 1-1.1 0-.2-.4-.4-1-.4-.5 0-1 .5-1 1.1zM305.3 190c-.4 1.3-1.4 2-3.2 2.1-2.1.1-2.2.2-.6.6 1.1.3 2.6 1 3.3 1.5.9.8 1.8.6 3.1-.6 1.5-1.4 2.4-1.5 4-.6 2.4 1.2 2.6 2.8.7 5.2-1.4 2-3.6 2.4-3.6.8 0-.6-.4-1-1-1-1.5 0-1.2 2.3.5 4.6 1.4 1.8 1.6 1.8 2.8.2 1.1-1.3 1.6-1.5 2.5-.6.7.7 1.2 1.8 1.2 2.5s.7 1.3 1.5 1.3 1.5-.4 1.5-.9-.7-1.4-1.5-2.1c-1.5-1.3-2-6.5-.9-9.4.6-1.5.8-1.5 2 .1 1.1 1.4 1.3 1.5 1.3.3 0-2.1-6.5-6-10.1-6-2.1 0-3.1.6-3.5 2zM274.5 191c-.8 1.3.4 3.2 1.6 2.5 1.2-.8 1.2-3.5 0-3.5-.6 0-1.3.4-1.6 1zM287.7 192.6c-.6 3.4.1 5.4 1.9 5.4 1.7 0 1.7-2.7 0-5.9l-1.3-2.4-.6 2.9zM280 193.7c.1 1 .7 2.9 1.4 4.2 1.1 2 1.4 2.1 1.9.7.7-1.8-1.1-6.6-2.5-6.6-.4 0-.8.8-.8 1.7zM320 193.8c0 .8 4.3 3.2 5.5 3.2 1.5 0 .1-1.9-2-2.8-3.1-1.4-3.5-1.5-3.5-.4zM344.6 199.5c-.7 1.8-4.3 2-4.9.2-.2-.6-.7-.9-1.1-.5-1.2 1.1 2.7 4.8 5.1 4.8 1.9 0 2.3-.5 2.3-3 0-3.3-.5-3.8-1.4-1.5zM350 203c0 .5.5 1 1 1 .6 0 1-.5 1-1 0-.6-.4-1-1-1-.5 0-1 .4-1 1zM358.5 203c.3.5.8 1 1.1 1 .2 0 .4-.5.4-1 0-.6-.5-1-1.1-1-.5 0-.7.4-.4 1zM306.4 207.1c-.3.6-.1 1.6.5 2.2.8.8 1.1.5 1.1-1.1 0-2.4-.5-2.8-1.6-1.1zM345.6 207.9c-.8 1.2 2 2.2 3.9 1.5 1.9-.8.9-2.4-1.5-2.4-1 0-2.1.4-2.4.9zM306.3 213.7c-1.3.9-2.3 2.6-2.3 4 0 3.5 2 2.4 3.5-2 .7-2 1.2-3.7 1.1-3.6 0 0-1.1.7-2.3 1.6zM339.2 214.2c.3.7 1.3 1.5 2.2 1.6 1.2.3 1.7-.1 1.4-1-.3-.7-1.3-1.5-2.2-1.6-1.2-.3-1.7.1-1.4 1zM351.6 213.9c-.8 1.2 1.8 2.1 5.9 2.1 3.7 0 5.4-1.4 2.9-2.4-2.4-.9-8.2-.7-8.8.3zM365.3 215.5c1.1.7 2.6 1.1 3.4.8 1.2-.5 1.2-.7.1-1.4-.7-.5-2.2-.9-3.3-.9-1.9.1-1.9.1-.2 1.5zM376.8 215.7c.7.3 1.6.2 1.9-.1.4-.3-.2-.6-1.3-.5-1.1 0-1.4.3-.6.6zM383.5 216c.3.5.8 1 1.1 1 .2 0 .4-.5.4-1 0-.6-.5-1-1.1-1-.5 0-.7.4-.4 1zM313.3 216.7c-2.8.5-3.1 2.3-.4 2.3 1 0 2.4.7 3.1 1.5 1.7 2.1-.1 4-3.8 4-1.6 0-2.8.6-3 1.6-.2 1.2.8 1.8 3.9 2.2 2.4.3 5.1.1 6-.4 1.3-.7 2.1-.5 2.8.8.7 1.4 1.3 1.5 2.1.7.9-.9.8-1.7-.1-3.2-1-1.6-1-2.3 0-3.6 1.4-1.7.7-3.6-1.4-3.6-.7 0-1.6 1.4-2 3.1-.9 3.9-1.9 2.9-2-1.9 0-3.8-.8-4.4-5.2-3.5zM346.2 220.2c.7 2 4.8 2.3 4.8.4 0-1.1-.9-1.6-2.6-1.6-1.6 0-2.4.5-2.2 1.2zM355.1 220.4c1.2 1 6 1.6 5.4.6-.3-.5-1.8-1-3.2-1-1.5 0-2.4.2-2.2.4zM377.5 221c-3.8.5-4.2.7-1.7.8 1.8.1 4.1.8 5.2 1.4 1.5.9 2.2 1 3.1.1 1.1-1.1.4-3.4-.9-3.1-.4 0-2.9.4-5.7.8zM390.6 221.7c-1.1 1.1-.6 2.3.9 2.3.8 0 1.5-.4 1.5-.9 0-1.3-1.6-2.2-2.4-1.4zM305 224c0 .5.5 1 1 1 .6 0 1-.5 1-1 0-.6-.4-1-1-1-.5 0-1 .4-1 1zM361.3 227.1c1.2.7 2.7.7 4.5 0 2.5-.9 2.4-.9-1.8-1-3.6 0-4.1.2-2.7 1zM306 229c0 .5.5 1 1.1 1 .5 0 .7-.5.4-1-.3-.6-.8-1-1.1-1-.2 0-.4.4-.4 1zM374 230c.9 1.6.8 2-.5 2-3.7 0-.5 2.5 3.5 2.8 3.9.3 4.2.2 3.1-1.2-.8-.9-2.1-1.6-3-1.6-1.2 0-1-.5.9-2l2.5-2h-3.8c-3.5 0-3.7.2-2.7 2zM395.2 229.1c.5 1.7 4.8 2.5 4.8 1 0-.6-.4-1.1-.9-1.1s-1.7-.3-2.7-.7c-1.2-.4-1.5-.2-1.2.8zM361.8 231.1c-1 .7-1 1.1 0 2.1s1.6 1 3.3 0c1.1-.7 2.5-1 3.1-.6.6.4.8.3.5-.3-.9-1.4-5.3-2.2-6.9-1.2zM317 232.5c0 1 .7 1.5 1.8 1.3 2.1-.4 1.9-2.2-.2-2.6-1-.2-1.6.3-1.6 1.3zM390.5 234c.3.5 1.1 1 1.6 1 .6 0 .7-.5.4-1-.3-.6-1.1-1-1.6-1-.6 0-.7.4-.4 1zM354.5 237c-.3.5.1 1 1 1s1.3-.5 1-1c-.3-.6-.8-1-1-1-.2 0-.7.4-1 1zM370 237.4c0 1.8 2.7 2.9 3.6 1.4.4-.5 0-1.4-.7-1.9-2-1.3-2.9-1.1-2.9.5zM359.5 239c-.3.5-.1 1 .4 1 .6 0 1.1-.5 1.1-1 0-.6-.2-1-.4-1-.3 0-.8.4-1.1 1zM363.5 239c-.3.5.1 1 .9 1 .9 0 1.6-.5 1.6-1 0-.6-.4-1-.9-1-.6 0-1.3.4-1.6 1zM405 239c0 .5.9 1 2.1 1 1.1 0 1.7-.5 1.4-1-.3-.6-1.3-1-2.1-1s-1.4.4-1.4 1zM471.9 239.2c-.1.7-.1 3.2.1 5.6.3 6.2-1.9 14.5-3.7 13.8-.7-.3-2.3 0-3.4.7-1.7 1-2.3.9-3.9-1.1-2.5-3-2.8-2.8-2.4 1.8.3 2.9-.1 4.2-1.1 4.6-2.1.9-1.8 2.1.6 2.7 2.8.7 1.5 2.7-1.8 2.7-2 0-2.4-.4-2-2 .6-2.3-.8-3.7-4.2-4.2-1.4-.1-2.7-.9-2.9-1.7-.4-1.1.2-1.3 2.7-.8 1.7.4 3.1.3 3.1-.1 0-1.3-4.2-3.4-4.9-2.5-.3.5-1.4 1.2-2.3 1.6-1.1.4-1.5 1.2-1.2 2.2.4.9 0 1.5-.9 1.5-2.3 0-3.1-1.8-1.6-3.6.6-.8.9-1.7.6-2.1-.9-.9-5.5-1.5-11.7-1.7-4.9-.1-5.5.1-5.5 1.9 0 1.5.6 1.9 2.3 1.8 1.3-.2 2.2.3 2.2 1.1s.6 1.6 1.3 1.9c.6.3-.8.2-3.3-.1l-4.5-.5 1.9 2.1c1.3 1.5 2.8 2.1 5 1.9 2.5-.2 3.2-.7 3.4-2.9.3-2.8 2.7-4.4 3.8-2.6.9 1.4 1.3 7.8.5 7.8-.3.1-4.1.2-8.5.3-7.6.2-7.8.1-9.2-2.5-.8-1.5-2.6-3.4-4.1-4.1l-2.6-1.4 3.2-1.1c5.7-2 2.4-3.5-7.3-3.3-2.2 0-4.5-.4-5.2-1-1.9-1.6-5.1 1.6-3.5 3.5 1.4 1.6.4 2.6-2.5 2.6-2.7 0-3.6 1.1-2.4 3 .7 1.1 1.2 1.1 2.3.2 1-.9 2.1-.9 4.4 0 1.6.6 3.9.8 4.9.4 1.8-.7 1.7-.9-.9-2.8-3-2.2-2.8-3.8.7-3.8 2.7 0 4.6 1.8 3.9 3.6-.3.8.1 1.4 1 1.4 1.8 0 2.9 2.4 2.1 4.5-.7 1.6-3 2-3.8.6-.3-.4-2.6-.2-5.1.7-4.2 1.3-4.7 1.3-6.5-.3-1.5-1.3-2.3-1.5-3.3-.7-.9.8-1.7.8-2.4.1-1.1-1.1-9.3-.1-9.3 1.1 0 .5.2 1.4.5 2.2.6 1.6 7.1 1.6 8.8-.1 1.6-1.6 3.1-1.4 6 .9 2.4 1.9 2.8 2 5.5.6 1.6-.8 3.2-1.2 3.6-.9.5.5 13.4 3.1 16.3 3.2.6.1.9-.7.6-1.9-.8-3 2.1-2.5 5.7 1 1.7 1.6 3.7 3 4.5 3 .8 0 1.5.5 1.5 1.1 0 .6-1.2.9-2.7.7-2.6-.3-2.8 0-2.7 2.8.1 2.4-.4 3.5-2.2 4.5-1.5.7-2.4 2.1-2.4 3.6 0 2.4-.7 2.7-3.4 1.7-1.7-.7-2.2-4.4-.6-4.4s1.2-2.7-.5-3.4c-.8-.3-1.5-1.7-1.5-3.1 0-2.5-.2-2.6-4.7-2.4-2.7.1-6.1-.4-7.6-1-3.5-1.4-4.7-.7-4.7 2.5 0 2.8-2.5 4.3-4.3 2.5-1.5-1.5-2.7-1.4-2.7.3 0 2.3 2 3.1 7.5 3.1 3.8 0 5 .4 5 1.5 0 .8-.7 1.5-1.5 1.6-3.6.2-4 .5-4 2.8 0 1.5.7 2.6 2 2.9 1.1.3 2 1.2 2 2s.7 1.7 1.5 2.1c.9.3 1.5 0 1.5-.9 0-1.9-.4-2 6.6 1.4 5.9 2.9 5.9 2.9 8.1.9 1.7-1.6 2.3-1.7 3-.6.4.8 2.3 2.5 4.1 3.8 1.7 1.3 3.2 3 3.2 3.7 0 2 1.7 1.5 2.3-.7.4-1.7 1.1-1.9 3.9-1.4 4.9 1 6.8 2.2 6.8 4.5 0 1.1-.4 1.8-.9 1.4-.5-.3-1.2-.1-1.5.3-.6 1 2.9 4.3 6.2 6.1 1.7.9 1.9 1.8 1.5 5.3-.7 5.7-1.8 6.7-4.3 4-1.1-1.1-2-2.5-2-3.1 0-1.3-2.8-2.2-3.6-1-1.1 1.9.6 9.9 2.2 9.9.8 0 1.4-.5 1.4-1.1 0-.6.9-.8 2.3-.3 3.1.9 3.4 1.4 1.4 2.5-.9.6-1.7 2.1-1.7 3.4 0 1.3-.4 2.7-1 3-1.6 1-1.2 3.5.5 2.9.8-.4 1.5-1.6 1.5-2.8 0-1.2.9-2.7 2-3.4 1.4-.9 2-2.3 2-5 0-2.1.7-4.7 1.5-5.8.8-1 1.5-3.3 1.5-4.9 0-1.7 1-5.5 2.1-8.5 1.2-3 2.3-7.2 2.4-9.3.2-2.1 1.1-4.7 2-5.7 1-1.1 1.5-2.6 1.1-3.5-.3-.9 0-2.6.6-3.8.7-1.2 1.3-2.4 1.3-2.7.3-2.2 4.1-9 5.1-9 1.3 0 1.2 2.6-.5 8-1.3 4.3-1.3 4.3-.1 3.5 2.1-1.3 2.3 2.6.2 4.1-1.9 1.3-2 1.8-.9 4.1.8 1.9.9 2.7.1 3-.6.2-1.9 1-2.9 1.7-1.7 1.2-1.7 1.4.5 4.3 1.2 1.7 2 3.6 1.6 4.1-.3.5.1 1.5.9 2.2 2.3 1.9 1.8 2.8-1.1 2.2-1.9-.3-2.5-.1-2 .7.4.6 1.4 1.1 2.2 1.1 1.6 0 1.9 3.6.3 4.5-.6.5-.4 1.1.7 1.9 1 .8 1.4 1.8 1 2.5-.4.6-.2 1.9.5 2.7 1 1.3 1 1.7-.2 2.5-.8.5-1.8.7-2.4.5-.9-.3-1.1-1-1.4-5.9-.2-2.6-2.1-2-2.1.7 0 1.3-.7 2.9-1.5 3.6-1.4 1.2-1.1 1.7 2 4.2 1.9 1.6 3.5 3.7 3.5 4.5 0 1.4.2 1.4 1.8 0 2.1-2 3.2-1.3 3.2 1.9 0 1.5.7 2.4 2.3 2.7l2.2.4-2.2.2c-1.3 0-2.3.6-2.3 1.2s.9.9 2 .6c1.1-.3 2-.1 2 .4s.9.9 2 .9c1.3 0 2 .7 2 1.9 0 1.3 1 2.1 3.3 2.6 1.7.4 2.6.9 2 1.2-.7.2-1.3 1.1-1.3 1.9 0 1.9-5.9 1.9-6.6-.1-.8-1.9-5.4-2-5.4-.1 0 2.2-4.4 2.8-18.5 2.6-7.1-.1-14.3-.2-15.8-.1l-2.8.1.4 106.7.4 106.8 20.4.5c11.2.3 18.4.7 16 .8-3.4.2-4.2.5-3.7 1.7.3.8.1 1.5-.4 1.5s-.7.7-.3 1.6c.4 1 .9 1.2 1.6.5 1.5-1.5 3.7-.1 3.7 2.3 0 1.2-.7 3.2-1.6 4.4-.9 1.3-1.3 3-.9 4 .4.9.9 2.9 1.2 4.4.3 2.3.1 2.8-1.6 2.8-2.3 0-2.6 1.1-1.1 3.8 1.2 2.1 3.3 7.7 2.8 7.7-.2.1.5 1.3 1.4 2.7 1.7 2.6 1.7 2.7-.5 4.5-2.8 2.3-5.2 7.3-3.4 7.3.6 0 1.8-.4 2.6-.9s2-.7 2.7-.4c1.1.4 1.1.9-.1 2.6-.8 1.2-1.2 3.1-.9 4.4.5 1.8.2 2.3-1.3 2.3-2.2 0-6.3-4.3-6.3-6.6 0-1.3-.4-1.1-1.8.6-1.4 1.7-2.4 2.1-4.2 1.5-2-.6-2.1-.9-.7-1.7 2.3-1.3 2.1-2.9-.8-6-1.4-1.5-2.5-3.6-2.5-4.7 0-1.7-.5-2-2.9-1.5-2.3.5-3.6 0-5.8-2-1.5-1.4-3.1-2.6-3.5-2.6-.5 0-.8-.7-.8-1.5s-.9-2.3-1.9-3.2c-1.1-.9-2.6-3.6-3.3-6-.7-2.4-1.6-4.3-2-4.3-.4 0-.8-.9-.8-2.1 0-1.5-.5-1.9-1.5-1.5-1 .4-1.7-.4-2.3-2.7-.5-1.8-1.4-3.3-2-3.3-.7-.1-1.9-.2-2.7-.3-2.3-.2-1.8-2.1.5-2.1 3.8 0 2.2-2.9-1.7-3.2-3.5-.3-3.8-.5-3.5-3 .2-1.9-.3-2.8-1.8-3.3-1.1-.3-2-1.1-2-1.6 0-.6-.4-.7-1-.4-.5.3-1.7-.3-2.7-1.5-2-2.4-5.1-2.6-5.9-.5-.4.9-1.9 1.5-3.5 1.5-1.7 0-3.9.9-5.1 2-1.2 1.1-2.9 2-3.9 2-.9 0-2 .7-2.3 1.6-.8 2.2-.8 2.2 1.2 2.7 1.3.3 1 .7-1.3 1.6-5.4 2.1-7.5 3.4-7.5 4.8 0 .7.7 1.3 1.5 1.3s1.5.8 1.4 1.7c0 1-.3 1.3-.5.7-.6-1.4-5.4-.5-5.4 1 0 1.1 4 5.7 7.4 8.4 2 1.6 2.1 4.1.2 4.8-2.1.8-20.5-7.4-25.2-11.2-2.2-1.9-4.9-3.4-5.9-3.4s-2.5-.8-3.4-1.7c-2-2.2-7.4-5.3-9.2-5.3-.7 0-2.4-1.1-3.8-2.4-2.3-2.1-2.8-2.3-4.4-1.1-1.8 1.3-1.7 1.4.2 2 2.2.7 2.7 2 1.2 2.9-.5.3-.7 1.5-.4 2.6.4 1.5.2 1.9-.9 1.5-1.6-.6-8.8 3.1-8.8 4.5 0 .4-1.4 1-3.1 1.2-2.5.4-3.2.1-4-1.9-.6-1.7-1.6-2.3-3.9-2.3-1.7 0-3-.5-3.1-1.3 0-.6-.4-.2-.9 1-1.3 3.2-8.5 3.4-9.5.3-.7-2.3-4.5-2.7-4.5-.5 0 2.4-6.1 2-6.7-.5-.6-2.4-1.9-2.5-6.8-.4-3 1.2-4.4 1.3-6.3.5-2.3-1.1-2.2-.9.9 3.1 1.8 2.4 4.5 5.7 5.9 7.4 1.4 1.7 3.9 4.8 5.5 6.9 1.7 2.1 6.4 7.3 10.5 11.5 6.6 6.9 11.7 12.5 17.2 18.6.9 1 4 4.1 7 6.7 2.9 2.6 7.5 6.8 10.2 9.3 2.7 2.4 5.3 4.4 5.8 4.4.4 0 .8.4.8 1 0 1.8-2.4 1.1-5.2-1.5-1.5-1.4-2.9-2.5-3.2-2.5-.9 0-10.6-10.1-10.6-11 0-.6-.6-1-1.3-1-1.2 0-38.8-36.6-47.2-45.9-3.4-3.7-4.1-4.1-4.3-2.5-.6 3.3-2.2 4-2.2 1 0-2.5-.2-2.7-1.6-1.5-1.4 1.1-1.8 1-3-.5-.7-1-1.5-2.3-1.7-2.9-.2-.6-1.7-1-3.5-1-2 0-3.2-.5-3.2-1.4 0-1.1-.4-1.1-2-.1-1.7 1.1-2.2 1-2.9-.1-.5-.7-2.8-1.4-5.2-1.5-2.4-.1-5.4-.8-6.6-1.4-3.1-1.7-3.3-1.6-3.3 1.8 0 2 .5 3 1.5 3s1.5 1 1.5 3c0 1.8-.5 3-1.3 3-2.7 0-2.9 46.9-.3 59.8 1.4 7.3 1.9 12 1.7 15.1-.1 1.1-.4 1.1-1.7 0-1.3-1-1.7-1-2.5.2-.5.8-.9 2.1-.9 3 0 2.4 6.7 22.4 9.1 26.9 3.1 5.9 4.6 14.6 5.9 35 1.6 23 .8 57.1-1.3 60.3-.9 1.4-1.6 6.3-2 13.2-1.3 23.4-4 34.6-8.7 35.8-1.1.3-2 1.3-2 2.4 0 1-.8 2.6-1.9 3.5-1.6 1.4-1.7 2.2-.9 6.4.5 2.7 1.3 6.2 1.8 7.9.4 1.6 1.1 4.7 1.5 6.7.5 3.2 1 3.8 3 3.8 1.4 0 2.5.5 2.5 1.1 0 1 1.1 2.4 6.3 8.1 1.6 1.6 1.8 3.3 1.5 10.9l-.3 8.9h465.6l-1.2-2.3c-8.7-16.5-33.1-56-54.2-87.7-11.5-17.3-17.2-25.1-29.7-41.1-4.1-5.3-10-13.1-13-17.4-3-4.3-7-9.6-8.7-11.7-5.4-6.6-4.2-7.5 3.7-2.8 2.8 1.7 5.3 3 5.5 3 .4 0 13.2 6 55 26 6.1 2.9 17 7.9 24.3 11.2 7.4 3.2 14.1 6.3 15 6.8 1.7 1 8.5 4.1 27.1 12.6 9.3 4.2 9.6 4.2 13 2.7 2-.8 5.9-2.3 8.6-3.3 2.8-1 7.3-2.7 10-3.8 2.8-1.1 8.2-3.2 12-4.6 8-3 11.1-4.3 36.5-15.6 10.2-4.6 22.2-9.9 26.8-11.9 4.5-2 8.2-4.2 8.2-4.9 0-.7-1.5-3.7-3.4-6.6-1.8-2.9-3.6-6.1-4-7.2-1-3.1-22.6-46.6-24.5-49.3-1-1.5-2.2-3.7-2.6-5.1-1.4-5-12-25.3-13.6-26.3-.9-.6-1.5-1.7-1.2-2.4.7-1.8-1.7-4.5-3.5-3.8-.8.3-2 .1-2.6-.4-1-.9-10.8-4.6-15.1-5.8-1.1-.3-2.7-1.1-3.5-1.8-.8-.7-5.8-2.9-11-5s-9.9-4.2-10.5-4.6c-.5-.4-4.6-2.1-9-3.9-4.4-1.7-10.8-4.5-14.1-6.1-3.4-1.6-6.5-2.9-6.9-2.9-.4 0-5.1-2.1-10.4-4.6-5.3-2.5-14.3-6.9-20.1-9.6-5.8-2.7-13-6.2-16-7.8-13.2-6.7-25.7-10.9-32.8-11-3 0-3.3.2-2.7 2.2.4 1.3 1.5 3.2 2.5 4.3 2.9 3.3 2.6 11.7-.5 15.5-.8.9-1.2 3.6-1 6.5.1 2.9-.4 5.9-1.2 7.1-.7 1.1-1 2.4-.6 2.7.3.4.1.7-.6.7-.6 0-1.4-.7-1.7-1.5-.4-.8-1.8-1.5-3.4-1.5-1.6 0-3 .7-3.4 1.5-.3.8-1 1.5-1.5 1.5-1.5 0-2.2-3.1-1-4.6.8-1 .2-1.3-3.2-1.6-5-.4-6.2-2.4-2.3-3.9 2.2-.8 2.5-1.2 1.4-1.9-.8-.5-2.2-.3-3.4.5-1.4.9-2.8 1-4.4.4-2.8-1.1-2.6-4.2.3-4.7 3-.6 4.2-2.1 2.5-3.2-2.5-1.6-5-1.1-7.8 1.5-3.2 3-5.8 3.2-7.2.5-1-1.8-.8-1.9 2-1.4 2.4.5 3 .3 3-1.1 0-.9-.9-1.9-1.9-2.2-1.1-.3-1.7-1.1-1.5-1.8.8-1.9-1.5-2.9-3.3-1.3-1.4 1.1-1.5 1-.9-.9.6-1.8-.2-2.7-5.6-5.9-3.5-2.2-6.7-3.9-7.3-3.9-.5 0-1.1-1.2-1.3-2.7-.3-2.4-.6-2.6-3.8-2.1-2 .3-4 .1-4.8-.7-.8-.6-2.8-1.1-4.3-1-5.2.4-6.3 0-6.3-1.9 0-1-1.4-2.8-3-4.1-1.7-1.3-3.4-3.7-3.8-5.4-.6-2.3-1.6-3.2-4-3.8-1.8-.5-3.2-1.5-3.2-2.3 0-.8-.9-1.5-2-1.5s-2.4-.8-2.7-1.8c-.9-2.3-2.5-3.3-4.4-2.7-.9.3-2.1-.4-2.9-2-1.6-2.9-2.8-3.2-4.5-.8-2 2.6-7 .7-7-2.7 0-2.7-1.3-3.1-9-3.3-2.2 0-4.3-.5-4.6-1-1-1.5-7.9.1-7.9 1.8 0 2.3-1.3 1.8-3.5-1.5-2.3-3.4-4.5-3.9-4.5-1 0 1.1-.4 2-1 2-.5 0-1-.5-1-1 0-.6-.9-1-2-1s-2-.5-2-1c0-1.8-3.2-1-6.3 1.6-2.9 2.4-3.1 2.5-3.8.8-.7-1.8-.8-1.8-.9.1 0 1.6-.2 1.7-.9.5-1.7-3-2.1-28.5-2-106.3.1-43.6.3-82.8.4-87.2.3-9.2 0-10.5-2.6-10.5-2.4 0-2.4-.4.5-3.4 2.7-3 4.1-3.2 6.3-1.1 2.5 2.6 3.8 1.2 3.8-4.1 0-3.7.4-4.9 1.5-4.9 1.9 0 2.6 5.1.9 7.1-.8 1-.8 1.8 0 2.7.7 1 .7 1.7 0 2.4-1.7 1.7 3.4 4.6 7.2 4.1 2.6-.4 3.2-.1 4 2 1.2 3.1 2.5 2.1 4.4-3.4 1.1-3.3 1.1-4.1-.1-5.5-1.6-1.8-1.9-7.9-.4-7.9.9 0 1.5 2.1 1.1 4.2 0 .5.6.8 1.4.8 1.6 0 2.1-4.5.6-5.4-.5-.3-1.2-2.2-1.6-4.3-.4-2-1.3-4.6-2.1-5.7-.8-1.1-1.4-3.5-1.4-5.4 0-2-.6-3.5-1.5-3.8-.8-.4-1.5-1.2-1.5-1.9s-.7-1.8-1.4-2.5c-.8-.6-2.2-3.5-3-6.3-1.5-5-1.1-7.4.9-5.9 1.2.9 5 8.1 5 9.6 0 .6.7 1.2 1.7 1.4 2 .4 3.3-5.9 2.3-12.1-.8-4.6-4.7-16.9-7.5-23.2-1-2.2-3-7.2-4.5-11-1.5-3.9-3.9-9.2-5.2-11.9l-2.5-5-1.9 2.5c-1.8 2.4-1.8 2.4-1.2.1.4-1.8.1-2.2-1.6-2.2-1.1 0-2.1-.4-2.1-.9 0-1.1-5.9-3.6-8.2-3.4-3.9.2-4 .3-3.1 1.5.5.7 1 3.6 1.1 6.4.3 5.6-1.2 7.3-4.8 5.4-1.7-.9-1.9-2.2-1.8-10.8.1-5.4-.2-10.3-.6-11-.9-1.6-2.6-1.5-2.7 0zm-21.2 30.2c-.4 1.1-1.6 1.4-4.4 1-6.2-.9-7.1-1.4-5-2.6 1-.5 2.4-.8 3-.5.7.2 2.1.1 3.2-.3 2.4-.9 4 .3 3.2 2.4zm28.3 1.5c-.5.9-1.5 2.5-2.3 3.5-1.3 1.8-1.4 1.7-2.1-1.4-.4-2.4-.2-3.8 1.1-5.2 1.6-1.8 1.8-1.8 3-.2.8 1.1.9 2.3.3 3.3zm-17.3 5.1c-1.4 1.1-2.7 2-3 2-.3 0-.3-.9 0-2 .4-1.3 1.4-2 3.1-2h2.5l-2.6 2zm-44.9 6.6c.9.9.4 1.5-1.8 2.2-3.2 1.1-4 .7-4-2 0-2.1 3.9-2.2 5.8-.2zm.2 7.4c0 1.5-.7 2-2.4 2-3.2 0-4.2-1.6-1.9-2.9 2.8-1.6 4.3-1.3 4.3.9zm77.3 48.4c2 1.5 2.3 4.5.5 5-.7.2-2.8.8-4.5 1.4-2 .6-3.5.7-3.9.1-.3-.5 0-.9.5-.9.6 0 1.1-1.1 1.1-2.5 0-1.3.8-2.9 1.8-3.4 2.2-1.3 2.3-1.3 4.5.3zm21.7 11c0 .8.3 2.1.6 3 .4 1 .1 1.6-.9 1.6-1.5 0-3-3.7-2.1-5.2.8-1.3 2.4-.9 2.4.6zm-6.6 1.1c-.4.8-1.2 1.5-1.9 1.5s-1.5-.7-1.9-1.5c-.4-1.1.1-1.5 1.9-1.5 1.8 0 2.3.4 1.9 1.5zM552 562.9c0 1.7-1.8 2.1-2.4.6-.3-.9 0-1.5.9-1.5.8 0 1.5.4 1.5.9zm-257 23.9c0 1.1-4.1 3.4-4.8 2.8-.3-.4.3-1.3 1.4-2.1 2.1-1.6 3.4-1.9 3.4-.7zm31.3 3.9c.4.3-.2 1.3-1.4 2.1-2.4 1.7-3.7.9-1.9-1.3 1.4-1.6 2.3-1.9 3.3-.8zm11.2.3c.3.5.1 1-.4 1-.6 0-1.1-.5-1.1-1 0-.6.2-1 .4-1 .3 0 .8.4 1.1 1zm-57 1.9c.3.5.1 1.2-.5 1.6-.5.3-1-.1-1-.9 0-1.8.6-2.1 1.5-.7zm117.5 8.7c0 .8-.4 1.2-1 .9-.5-.3-1-1-1-1.6 0-.5.5-.9 1-.9.6 0 1 .7 1 1.6zm1.7 1.6c-.3.7-.5.2-.5-1.2s.2-1.9.5-1.3c.2.7.2 1.9 0 2.5zm58.4 12.7c-.9.6-1 1.1-.2 1.5 1.2.8.6 2.6-1 2.6-.5 0-.9-1.1-.9-2.5 0-1.7.5-2.5 1.8-2.5s1.4.2.3.9zm198.6 4.3c-.3.8-.6.5-.6-.6-.1-1.1.2-1.7.5-1.3.3.3.4 1.2.1 1.9zm-184 12.9c.4 1.2 1.1 1.8 2 1.5 5.1-2 6.3-1.9 6.3.7 0 1.6-.7 2.8-1.9 3.2-2.1.6-5.1-.3-5.1-1.6 0-.5-.9-.9-2-.9-2.3 0-4.6-3.6-2.7-4.3 2.3-1 2.9-.7 3.4 1.4zM487 638c0 .5-.5 1-1.1 1-.5 0-.7-.5-.4-1 .3-.6.8-1 1.1-1 .2 0 .4.4.4 1zm-2 2.9c0 .6-.4 1.3-1 1.6-.5.3-1-.1-1-.9 0-.9.5-1.6 1-1.6.6 0 1 .4 1 .9zm-126 22.2c0 .6-.4.7-1 .4-.5-.3-1-1.1-1-1.6 0-.6.5-.7 1-.4.6.3 1 1.1 1 1.6zm33.5 26.9c.3.5-.1 1-.9 1-.9 0-1.6-.5-1.6-1 0-.6.4-1 .9-1 .6 0 1.3.4 1.6 1zm6.3 5.4c.3 1.2-.1 1.7-1 1.4-.7-.3-1.5-1.3-1.6-2.2-.3-1.2.1-1.7 1-1.4.7.3 1.5 1.3 1.6 2.2zm6 4.5c.3.8-.1 1.2-.9.9-.7-.2-1.5-1-1.7-1.7-.3-.8.1-1.2.9-.9.7.2 1.5 1 1.7 1.7zm6.7 5.1c.3.5.2 1-.4 1-.5 0-1.3-.5-1.6-1-.3-.6-.2-1 .4-1 .5 0 1.3.4 1.6 1zm8.6 8.7c1.3 1.6 1.2 1.7-.3.4-1.7-1.3-2.2-2.1-1.4-2.1.2 0 1 .8 1.7 1.7zM843.5 729c.3.5.2 1-.4 1-.5 0-1.3-.5-1.6-1-.3-.6-.2-1 .4-1 .5 0 1.3.4 1.6 1zm-399 9c5.2 5.7 3.8 5.2-2.7-.9-2.1-1.9-3.8-3.9-3.8-4.4 0-1.5 1.4-.4 6.5 5.3zm8 8c.3.5.1 1-.4 1-.6 0-1.1-.5-1.1-1 0-.6.2-1 .4-1 .3 0 .8.4 1.1 1zm8.3 6.8c4 3.2 5.2 5.2 3.4 5.2-1.1 0-10.2-8.4-10.2-9.3 0-1.1 1.6-.1 6.8 4.1zm394.2.7c0 .8-.4 1.5-1 1.5-.5 0-1-.7-1-1.5s.5-1.5 1-1.5c.6 0 1 .7 1 1.5zm-386 7.1c0 .8-.4 1.2-1 .9-.5-.3-1-1-1-1.6 0-.5.5-.9 1-.9.6 0 1 .7 1 1.6zm8.4 8.3c2.1 2.3 3.5 4.1 3 4.1-1-.1-5.8-4.3-8.9-8l-2-2.3 2 1.1c1.1.6 3.7 2.9 5.9 5.1zm9.6 9.7c.5 1.3 1.6 2.4 2.3 2.4 1.6 0 6.1 5.9 5.2 6.8-.7.7-12.5-11.4-12.5-12.9 0-1.8 4.1 1.1 5 3.7zm17.8 18c7.7 7.5 3.8 5.4-5.1-2.9-1.7-1.5-2.4-2.7-1.8-2.7.7 0 3.8 2.5 6.9 5.6zm8.2 7.4c0 .5-.2 1-.4 1-.3 0-.8-.5-1.1-1-.3-.6-.1-1 .4-1 .6 0 1.1.4 1.1 1zM440.5 242.9c-.3.5-.1 1.2.4 1.5.5.3 1.1-.1 1.5-.9.6-1.6-.9-2.1-1.9-.6zM358.4 244.3c-.9 2.3 1.4 6.7 3.5 6.7 2.5 0 3.1-1 2-3.7-1.1-2.9-4.7-4.9-5.5-3zM408 244c0 .5.5 1 1 1 .6 0 1-.5 1-1 0-.6-.4-1-1-1-.5 0-1 .4-1 1zM367.9 244.2c-1.1 2.1-.1 6.2 1.9 8.1l2.5 2.2-.6-4c-.4-2.2-.7-4.6-.7-5.3 0-1-2.7-1.8-3.1-1zM394.2 246.4c.2 1.8.9 2.5 3 2.8 1.7.3 2.9-.1 3.3-1 .4-1 0-1.3-1.5-.9-1.3.3-2.1-.1-2.5-1.4-.9-2.7-2.5-2.3-2.3.5zM413.2 247.2c-1.4 1.4-1.6 3.8-.3 3.8 1.5 0 3-2.5 2.2-3.8-.5-.9-1-.9-1.9 0zM406.5 247.9c-.3.5-.1 1.2.5 1.6.5.3 1-.1 1-.9 0-1.8-.6-2.1-1.5-.7z"/><path d="M433.5 247.9c-.6 1.1.9 2.3 1.9 1.4.9-.9.7-2.3-.3-2.3-.6 0-1.2.4-1.6.9zM188.6 249.6c-.8 2.1-.8 2.1 1.4 2.7 2.5.6 3.6-.9 2-2.8s-2.6-1.9-3.4.1zM381 250.5c-.7.8-1 2.6-.8 4 .6 2.9-.8 4.3-2.5 2.6-1.7-1.7-4.5-1.3-5.2.9-.3 1.1.1 3.5 1 5.4 1.3 2.7 1.4 3.9.5 5.6-1.6 2.9-3.3 1.4-2.8-2.6.3-2.6 0-3.4-1.2-3.4-.9 0-2 .3-2.4.7-.4.4-1.3.8-1.9.8-.7 0-1.2.4-1.2 1 0 .5 1 .8 2.3.6 2.1-.2 2.3.1 2 3.1-.3 3.2-.2 3.3 4.2 3.9 5.4.8 6.8-.1 5.3-3.4-1.3-2.9-.5-10.7 1.1-10.7.6 0 1.8.4 2.5.9 1.6 1 5.1-.3 5.1-1.8 0-.5-1.3-1.1-3-1.5-2.1-.4-3-1.1-3-2.6 0-1.1.7-2 1.5-2s1.5-.7 1.5-1.5c0-1.9-1.4-1.9-3 0zM452 250.9c0 .6.5 1.3 1 1.6.6.3 1-.1 1-.9 0-.9-.4-1.6-1-1.6-.5 0-1 .4-1 .9zM107.8 256.3c.8 1 .2 2.3-2.5 5.2-3.5 3.8-3.5 4-2.8 9.9.6 5.5 1 8.8 1.4 10.8 0 .5.7.8 1.4.8 1.2 0 6.7-8.2 6.7-10 0-.6.5-1 1.1-1 .6 0 .8-.8.5-1.8-.3-.9-.8-4.4-1.2-7.7-.6-5.9-1.5-7.5-4.3-7.5-1 0-1.1.3-.3 1.3zM361.6 257.6c-.7 1.8 1.3 2.7 5.1 2.2 1.7-.2 2.8-.9 2.8-1.8 0-2.1-7.1-2.5-7.9-.4zM392 257.3c0 1.8 4.9 3.2 6.3 1.8 1.4-1.4.7-1.9-3.1-2.7-2.5-.5-3.2-.3-3.2.9zM188 258.9c0 .6.5 1.3 1 1.6.6.3 1-.1 1-.9 0-.9-.4-1.6-1-1.6-.5 0-1 .4-1 .9zM388.4 262.3c-.7 2 .3 3.7 2.2 3.7 1.8 0 1.8-2.4-.1-4-1.2-1-1.6-.9-2.1.3z"/><path d="M381 264c-1.2.8-.9 1 1.2 1 1.5 0 3-.5 3.3-1 .8-1.3-2.5-1.3-4.5 0zM363 271c0 2.5.4 3 2.5 3 2.8 0 2.8 0 1.5-3.4-1.4-3.7-4-3.4-4 .4zM195 277c0 1.7.3 1.9 1.9 1 3.2-1.6 3.4-3 .7-3-1.9 0-2.6.5-2.6 2zM291 277c0 .5.5 1 1 1 .6 0 1-.5 1-1 0-.6-.4-1-1-1-.5 0-1 .4-1 1zM384 278.4c0 1.4.5 2.8 1 3.1.6.4 1-.7 1-2.4s-.4-3.1-1-3.1c-.5 0-1 1.1-1 2.4zM296 278.4c0 .9.7 1.6 1.6 1.6 1.7 0 1.4-2.2-.4-2.8-.7-.2-1.2.3-1.2 1.2zM198 281.1c-1.2 2.1-.6 6.9.8 6.9.4 0 1.3-.9 2-2.1 1.1-1.8 1.1-2.4-.2-3.8-.9-1-1.3-2.1-.9-2.4.3-.4.3-.7 0-.7s-1.1.9-1.7 2.1zM227.3 279.7c-1.5.5-1.7 2.3-.4 2.3.5 0 1.1-.7 1.5-1.5.3-.8.4-1.5.3-1.4-.1 0-.8.3-1.4.6zM345.8 279.7c-2.1.2-3.8.8-3.8 1.4 0 .8 1.6 1 11.2 1.3 4.3.1 4.4 0 2.4-2-1.4-1.4-2.4-1.4-9.8-.7zM364.5 280c-.3.5-1.5 1-2.6 1-1 0-1.9.7-1.9 1.5 0 1.8.1 1.8 3.5.5 2.3-.9 2.6-.8 2.1.5-.3 1 .1 1.8 1.2 2.2.9.3 2.5 1.3 3.5 2.1 2.3 2 3.3.8 1.8-2.4-1.6-3.5-.6-4.6 3.6-3.8 2.8.5 3.5.4 3.1-.7-.6-1.7-13.3-2.5-14.3-.9zm3.2.6c-.3.3-1.2.4-1.9.1-.8-.3-.5-.6.6-.6 1.1-.1 1.7.2 1.3.5z"/><path d="M377.6 284.9c-.3.5-.4 1.5-.1 2.3.7 1.8-6.7 5.2-9.5 4.3-1.2-.4-2.7-.1-3.5.5-1.1.9-1.9.9-2.8.2-1.4-1.2-4.6.2-3.4 1.4 1.1 1.2 16.9.6 18.1-.6.5-.5 2-1 3.3-1 2.4 0 3.1-1.4 1.3-2.5-.6-.4-1-1.6-.8-2.7.3-2.2-1.6-3.6-2.6-1.9zM354.8 287.7c-.9.2-1.9 1.5-2.2 2.9-.4 1.3-1.4 2.4-2.4 2.5-1.2 0-1 .3.7 1 3.5 1.4 5.3.4 4.5-2.5-.4-1.7 0-2.7 1.3-3.5 1.8-1.1 1.1-1.2-1.9-.4zM175.9 290.1c1.1 3.2 3.4 3.8 2.9.8-.1-1.3-1.1-2.5-2-2.7-1.5-.3-1.6.1-.9 1.9zM392 288.8c0 .7-.8 1.2-1.8 1.2-2.6 0-3 .6-2.4 3.5.3 1.7 1.1 2.5 2.6 2.5s1.7-.3.7-.9c-1.1-.7-1-1.3.4-3.5 1-1.5 1.5-2.9 1.1-3.3-.3-.3-.6-.1-.6.5zM395.3 290.5c-.3.9-.3 1.9.1 2.2.3.3.1 1.2-.5 1.9-.9 1.1-.7 1.5.7 2 1.1.3 2.6.9 3.6 1.4 1.1.6 1.8.5 2.2-.6.3-.9 1.1-1.2 1.7-.8 1.6.9.6-.6-2.8-4.5-3.1-3.5-4.1-3.8-5-1.6zM276 293c0 1.3.7 2 2 2 1.1 0 2 .6 2 1.2 0 .7.5.5 1.1-.5 1.3-2.2.1-3.9-3.1-4.4-1.4-.2-2 .3-2 1.7zM199 294.9c0 .5.3 1.7.6 2.6.5 1.3.8 1.4 1.5.3 1.3-2 1.1-3.8-.6-3.8-.8 0-1.5.4-1.5.9zM209.8 296.7c.6.2 1.2 1 1.2 1.8 0 2 2.7 3.9 3.6 2.4.7-1.2-3.2-4.9-5.1-4.8-.5 0-.4.3.3.6zM218 297.6c0 1.4.3 1.4 1.5.4.8-.7 1.5-1.4 1.5-1.6 0-.2-.7-.4-1.5-.4s-1.5.7-1.5 1.6zM369.8 296.7c.6.2 1.8.2 2.5 0 .6-.3.1-.5-1.3-.5-1.4 0-1.9.2-1.2.5zM262.5 299c-.9 1.5 2.4 5 4.7 5 2.8 0 2.2-2.4-1.1-4.3-2-1.2-3.2-1.4-3.6-.7zM223.7 299.6c-.4.4-.7 1.6-.7 2.6 0 2 2.5 2.5 3.6.7.8-1.3-1.9-4.3-2.9-3.3zM245.8 299.7c1.2.2 2.2 1.1 2.2 1.9 0 .8.5 1.4 1 1.4.6 0 1-.6 1-1.4 0-1.5-2.2-2.7-4.8-2.5-1 .1-.8.4.6.6zM275.4 303.1c-1.6 2-2.6 6.7-1.5 7.3 1.6 1 3.2-2.2 2.9-5.5-.2-2.6-.5-2.9-1.4-1.8zM244.3 304c-3 1.2-2.9 3 .1 3 2.5 0 5.1-2.2 3.9-3.3-.8-.9-1.2-.8-4 .3zM228 305c0 .5.5 1 1.1 1 .5 0 .7-.5.4-1-.3-.6-.8-1-1.1-1-.2 0-.4.4-.4 1zM237 305c0 .5-.9 1-1.9 1-1.8 0-3.8 1.7-3 2.4 1.1.8 6.9-1.7 6.9-2.9 0-.8-.4-1.5-1-1.5-.5 0-1 .4-1 1zM307.3 305.4c.4 1 .7 2.2.7 2.7s.5.9 1.1.9c1.5 0 .7-4.3-1-4.8-1-.3-1.2 0-.8 1.2zM413.2 304.9c.4 1.3 1.8 1.6 1.9.4 0-.4-.5-.9-1.1-1.2-.7-.2-1.1.2-.8.8zM266 308c0 .5.5 1 1 1 .6 0 1-.5 1-1 0-.6-.4-1-1-1-.5 0-1 .4-1 1zM292.7 309.6c-.8.8.1 2.4 1.4 2.4.5 0 .9-.7.9-1.5 0-1.5-1.2-2-2.3-.9zM411.5 309.9c-.6 1.1 3.3 2.6 4.3 1.6.4-.3 0-1-.8-1.5-1.9-1.2-2.7-1.2-3.5-.1zM420 310.6c0 .8.5 1.2 1 .9.6-.3 1-1 1-1.6 0-.5-.4-.9-1-.9-.5 0-1 .7-1 1.6zM212.6 310.9c-.3.5.1 1.1.9 1.5 1.8.6 4.5-.2 4.5-1.5 0-1.2-4.7-1.2-5.4 0zM302 310.8c0 4.1 2.8 5.4 4.8 2.2 1-1.6 1-2-.2-2-.8 0-2.1-.3-3-.6-.9-.3-1.6-.2-1.6.4zM328 314.6c0 .8.5 1.2 1 .9.6-.4.8-1.1.5-1.6-.9-1.4-1.5-1.1-1.5.7zM242 315.9c0 1.1.4 2.1.9 2.1 1.8 0 2.1-1.8.6-3-1.3-1-1.5-.9-1.5.9zM382 315c0 .5.5 1 1 1 .6 0 1-.5 1-1 0-.6-.4-1-1-1-.5 0-1 .4-1 1zM273.1 316.6c0 1.1.3 1.4.6.6.3-.7.2-1.6-.1-1.9-.3-.4-.6.2-.5 1.3zM418.8 316.1c-1 .5-1.8 1.4-1.8 1.9 0 1.3 4.1 1.2 6 0 1.3-.9 1.3-1.1 0-2-1.8-1.2-2.1-1.2-4.2.1zM429 316.5c0 .8.7 1.5 1.5 1.5s1.5-.7 1.5-1.5-.7-1.5-1.5-1.5-1.5.7-1.5 1.5zM301.9 318c1.9 1.7 2.1 2.3 1.1 3.5-1.5 1.8.1 2 1.8.3 1.9-1.9 1.4-4.5-1-5.2-3.9-1-4.4-.6-1.9 1.4zM413.5 317c-.3.5.1 1 1 1s1.3-.5 1-1c-.3-.6-.8-1-1-1-.2 0-.7.4-1 1zM408.8 317.7c.7.3 1.6.2 1.9-.1.4-.3-.2-.6-1.3-.5-1.1 0-1.4.3-.6.6zM435.2 319.2c-1.4 1.4-1.6 3.8-.2 3.8 1.3 0 3.2-3.8 2.2-4.4-.5-.3-1.4 0-2 .6zM207 321.4c0 .9.5 1.6 1 1.6.6 0 1-.4 1-.9 0-.6-.4-1.3-1-1.6-.5-.3-1 .1-1 .9zM271.6 322.5c-.3.8-.1 1.5.4 1.5 1.3 0 2.2-1.8 1.1-2.4-.5-.3-1.1.1-1.5.9zM411.5 322c-.8 1.3.8 1.8 2.9 1 1.9-.6 1.9-.7-.2-1.2-1.2-.4-2.4-.2-2.7.2zM431.7 328.6c-.4.4-.7 1.4-.7 2.3 0 1.1.3 1.2 1.1.4.6-.6 1-1.6.7-2.3-.2-.6-.7-.8-1.1-.4zM301 332.6c0 .8.5 1.2 1 .9.6-.3 1-1 1-1.6 0-.5-.4-.9-1-.9-.5 0-1 .7-1 1.6zM444.5 335c-.3.5-.1 1 .4 1 .6 0 1.1-.5 1.1-1 0-.6-.2-1-.4-1-.3 0-.8.4-1.1 1zM446 349.7c.1 4.4.2 4.7 1.5 2.9 2-2.6 2-7.6 0-7.6-1.1 0-1.5 1.2-1.5 4.7zM498 353.2c0 1.9.2 2 1 .8 1.3-1.9 1.3-3 0-3-.5 0-1 1-1 2.2zM763.7 358.1c-22.8 2.2-44.3 14.7-54.3 31.5-7.7 13.1-10 23-9.1 39.7 1.1 22.6 10 37.8 27.3 46.9 10.1 5.3 18.5 7.5 38.8 10.4 10 1.4 19.8 3 21.8 3.5 10.8 2.8 15.9 14.9 10.7 25.5-3.8 8-16.7 12.1-34.4 11-17-1.1-30.2-5.3-38.5-12.2l-3.2-2.7-16.6 16.7-16.7 16.7 4.3 3.9c10.8 9.7 25 16.7 40.3 20 59.8 12.6 107.6-7.5 116.5-49.1 3.1-14.3.4-37.2-5.8-49.2-1.1-2.3-4.8-6.9-8.2-10.3-10.8-10.8-26.6-16.6-54.1-19.8-15.3-1.8-22.5-3.7-26.4-6.8-10.2-7.9-7.4-22.1 5.6-28.4 5.5-2.7 6.5-2.9 17.8-2.8 15.1.1 23 2.1 30.9 7.5l5.9 4 4.5-4.3c19.2-18.7 27.3-27.1 26.8-28.4-.9-2.3-12.8-10.5-21.1-14.5-10.3-4.9-21.2-7.7-35-8.9-12.3-1.1-15.3-1.1-27.8.1zM239 358.7v75.4c0 70.9.1 75 2 82.3 4.3 16.8 16 33.5 30.2 42.9 15.5 10.3 28.5 14 49.8 14.3 16.6.2 16.3.2 15.5 1.4-.3.5.1 1 .9 1 2.2 0 2-3-.1-3.1-1 0 2.2-1.4 7.1-3 17.4-5.7 28.4-12.6 38.4-24.2 8.8-10.2 14.3-22.3 16.1-35.4.5-3.8 1.1-39.4 1.3-79.3l.3-72.5-26.2-.3-26.2-.2-.3 73.7-.3 73.8-2.3 5c-5 10.8-13.5 15.9-26.4 15.8-12.7-.1-21.8-6.3-25.8-17.6-1.9-5.4-2-8.3-2-78.2V358h-26c-14.3 0-26 .3-26 .7zM521.9 358.6c-.2.5-.3 11.1-.1 23.6l.3 22.8h53l-.3 83.6-.3 83.7 7.4-.7c4.1-.3 15.7-.6 25.7-.6H626l.2-82.8.3-82.7 26.3-.3 26.2-.2v-46h-73.9c-40.6 0-75.8-.3-78.3-.6-2.5-.4-4.7-.2-4.9.2zM402.6 563.9c-.4.5-.3 1.6 0 2.5.5 1.4.9 1.4 3.1-.1 2.3-1.6 2.4-1.7.7-2.4-2.6-1-3.2-1-3.8 0zM330.5 579c.3.5 1.3 1 2.1 1s1.2-.5.9-1c-.3-.6-1.3-1-2.1-1s-1.2.4-.9 1zM286 580c0 .5.5 1 1 1 .6 0 1-.5 1-1 0-.6-.4-1-1-1-.5 0-1 .4-1 1zM327.5 584c-.3.6.5 1 1.9 1s2.8-.5 3.1-1c.3-.6-.5-1-1.9-1s-2.8.4-3.1 1zM605 593c0 .5.5 1 1 1 .6 0 1-.5 1-1 0-.6-.4-1-1-1-.5 0-1 .4-1 1zM620.5 604c-.3.5-.1 1 .4 1 .6 0 1.1-.5 1.1-1 0-.6-.2-1-.4-1-.3 0-.8.4-1.1 1zM468.7 605.7c-2.7 1.4-2.7 1.6-1 2.9 2.7 2 5.3 1.7 5.3-.6 0-1.1 0-2.3.1-2.7.1-1.3-1.5-1.1-4.4.4zM470.5 611.9c-.3.5-.1 1.2.5 1.6.5.3 1-.1 1-.9 0-1.8-.6-2.1-1.5-.7zM642.5 616.1c-.4.6.2 1.3 1.4 1.6 2.6.7 2.7 1.9.1 3.5-1.1.7-2 1.6-2 2 0 .5.9.8 2 .8s2-.7 2-1.5.5-1.5 1-1.5c1.6 0 1.1-3.2-.7-4.6-2.2-1.6-3-1.7-3.8-.3zM898.8 882.7l-.3 15.8-16 .5-16 .6 16.8.2 16.7.2v-16.5c0-9.1-.2-16.5-.5-16.5-.2 0-.6 7.1-.7 15.7zM7.8 899.7c4.6.2 11.8.2 16 0 4.2-.1.5-.3-8.3-.3s-12.3.2-7.7.3z"/></svg>