<?xml version="1.0" standalone="no"?>
<!DOCTYPE svg PUBLIC "-//W3C//DTD SVG 20010904//EN"
 "http://www.w3.org/TR/2001/REC-SVG-20010904/DTD/svg10.dtd">
<svg version="1.0" xmlns="http://www.w3.org/2000/svg"
 width="900.000000pt" height="900.000000pt" viewBox="0 0 900.000000 900.000000"
 preserveAspectRatio="xMidYMid meet">

<g transform="translate(0.000000,900.000000) scale(0.100000,-0.100000)"
fill="#000000" stroke="none">
<path d="M0 8805 l0 -195 29 0 c17 0 33 5 36 10 9 15 22 12 22 -5 0 -8 -6 -15
-14 -15 -7 0 -13 -9 -13 -20 0 -11 6 -20 14 -20 17 0 38 24 29 33 -12 13 26
18 61 8 21 -5 34 -6 31 0 -10 15 39 28 82 22 25 -3 43 -1 47 6 4 7 -1 11 -13
11 -11 0 -23 5 -26 11 -5 7 3 9 24 6 22 -4 31 -1 31 9 0 8 5 14 10 14 6 0 10
-4 10 -10 0 -5 7 -10 16 -10 18 0 56 -37 75 -71 10 -19 12 -20 29 -4 15 14 17
21 8 40 -6 14 -16 21 -24 18 -8 -3 -14 0 -14 6 0 6 11 11 24 11 13 0 27 7 30
16 3 8 11 12 16 9 11 -7 49 32 50 51 0 18 31 26 46 13 21 -17 17 -31 -6 -24
-16 5 -20 2 -20 -14 0 -11 -9 -25 -20 -31 -29 -15 -25 -40 5 -40 14 0 25 6 25
13 0 7 16 21 35 30 19 9 35 21 35 27 0 5 13 10 29 10 33 0 49 16 32 33 -21 21
-11 35 31 40 24 3 57 9 75 14 46 12 28 36 -28 37 -26 1 -44 6 -47 14 -3 11 6
12 40 7 34 -5 47 -3 57 9 8 9 19 16 26 16 7 0 18 14 25 30 16 38 30 39 30 1 0
-26 4 -30 38 -36 25 -4 47 -1 67 9 28 15 30 14 37 -4 9 -23 43 -27 52 -5 3 8
10 15 16 15 21 0 9 -26 -25 -55 -19 -17 -35 -38 -35 -47 0 -9 -12 -30 -26 -45
-14 -15 -34 -37 -43 -48 -9 -11 -30 -28 -46 -37 -17 -9 -32 -24 -33 -33 -6
-30 34 1 132 99 97 97 141 154 151 199 4 15 11 30 16 33 5 3 9 12 9 20 0 11
-20 14 -104 14 -77 0 -104 -3 -103 -12 1 -31 -4 -48 -13 -48 -5 0 -7 13 -3 30
l5 30 -516 0 -516 0 0 -195z m698 67 c2 -7 -3 -12 -12 -12 -9 0 -16 7 -16 16
0 17 22 14 28 -4z"/>
<path d="M8994 8845 c0 -88 2 -123 3 -77 2 46 2 118 0 160 -1 42 -3 5 -3 -83z"/>
<path d="M918 8860 c-23 -21 -22 -27 1 -39 13 -8 28 -5 56 9 37 19 35 27 -7
34 -7 1 -17 4 -23 8 -5 3 -18 -2 -27 -12z"/>
<path d="M1037 8814 c-4 -4 -7 -14 -7 -23 0 -11 3 -12 11 -4 6 6 10 16 7 23
-2 6 -7 8 -11 4z"/>
<path d="M875 8700 c3 -5 8 -10 11 -10 2 0 4 5 4 10 0 6 -5 10 -11 10 -5 0 -7
-4 -4 -10z"/>
<path d="M1450 8670 c0 -3 7 -39 15 -80 9 -41 17 -88 19 -105 19 -139 26 -227
26 -332 0 -164 14 -287 61 -537 21 -115 42 -251 45 -301 7 -98 4 -107 -52
-142 -18 -11 -17 -14 16 -42 19 -17 40 -31 47 -31 22 0 40 -107 48 -282 10
-249 29 -592 40 -733 1 -22 6 -80 9 -130 4 -49 10 -101 13 -115 5 -23 6 -24
13 -5 5 11 9 34 9 52 1 42 10 63 28 63 8 0 11 5 7 11 -3 6 -17 8 -30 5 -20 -5
-24 -3 -24 17 0 13 5 28 11 34 8 8 6 20 -6 43 -20 38 -13 80 13 80 10 0 29 11
42 25 20 22 22 28 12 65 -6 23 -6 42 -1 46 16 10 9 33 -12 39 -19 6 -19 8 -4
25 10 11 14 26 10 38 -3 11 -1 23 5 27 20 12 10 36 -20 46 -16 6 -30 14 -30
18 0 10 46 31 65 31 22 0 18 21 -4 27 -25 6 -24 66 2 71 18 4 23 27 7 37 -6 4
-4 17 5 35 11 21 20 27 35 23 24 -6 26 -31 5 -59 -19 -26 -19 -34 3 -34 10 0
31 -13 47 -30 16 -16 34 -30 42 -30 7 0 17 -9 22 -19 8 -14 7 -20 -4 -25 -20
-7 -19 -24 3 -29 12 -3 10 -5 -8 -7 -14 -1 -34 -5 -44 -9 -18 -7 -17 -9 13
-27 25 -15 31 -24 26 -41 -6 -27 8 -37 33 -22 22 14 56 5 49 -14 -2 -7 -21
-12 -43 -12 -29 0 -40 -4 -42 -17 -3 -18 10 -23 51 -19 9 1 17 -3 17 -9 0 -6
4 -9 9 -6 18 11 42 -6 39 -28 -2 -17 2 -21 26 -21 32 0 41 -12 27 -34 -7 -11
-13 -12 -23 -3 -8 6 -23 11 -33 10 -11 0 -27 1 -35 3 -12 3 -15 -10 -15 -73 0
-75 6 -95 19 -63 3 8 15 15 26 15 11 0 20 6 20 14 0 18 31 29 56 19 17 -6 16
-8 -6 -13 -34 -8 -32 -34 2 -37 32 -2 59 24 38 37 -9 5 -2 8 21 7 31 -2 34 -5
37 -37 2 -19 8 -39 14 -45 6 -7 9 -2 8 15 -4 43 -1 50 21 50 19 0 20 -4 15
-55 -5 -56 0 -65 23 -42 10 10 15 8 27 -8 13 -17 16 -18 24 -5 20 32 2 62 -25
40 -11 -9 -16 -7 -25 10 -12 23 -1 31 35 27 16 -2 20 4 20 28 0 28 -3 30 -40
31 -59 3 -145 21 -161 35 -12 10 -10 15 16 30 35 21 42 54 10 46 -23 -6 -27
15 -6 32 10 8 16 9 21 1 3 -5 15 -10 27 -10 11 0 22 -8 25 -20 6 -22 18 -26
28 -10 9 15 42 12 48 -4 4 -10 -2 -16 -16 -18 -45 -6 -22 -40 36 -53 15 -3 27
-12 27 -20 0 -8 8 -15 18 -15 12 0 13 -3 5 -8 -22 -14 6 -81 36 -88 24 -5 82
-25 89 -30 2 -1 -1 -10 -6 -21 -37 -74 -43 -93 -37 -112 4 -14 1 -23 -9 -27
-20 -8 -21 -24 -1 -24 8 0 22 15 31 33 9 17 20 34 23 37 4 3 13 19 20 37 9 23
10 36 2 52 -10 18 -9 21 11 18 14 -1 23 4 26 15 4 20 -36 40 -78 40 -53 0
-131 158 -90 183 21 13 41 -24 34 -61 -4 -24 -2 -33 12 -38 18 -7 37 11 27 27
-3 5 7 19 23 32 24 19 26 25 15 38 -28 34 14 50 44 17 15 -16 15 -20 3 -20 -8
0 -24 -17 -36 -39 -23 -40 -28 -71 -13 -71 4 0 25 -11 45 -25 35 -24 56 -26
56 -4 0 5 -6 9 -14 9 -8 0 -13 10 -13 25 0 14 3 25 8 25 5 0 9 -9 9 -20 0 -10
9 -24 19 -30 11 -5 22 -19 26 -29 8 -27 33 -16 37 16 4 37 30 51 63 33 24 -13
28 -13 40 3 7 9 10 28 7 42 -3 18 0 25 12 25 20 0 31 42 17 68 -6 11 -7 22 -4
26 10 10 38 7 51 -6 6 -6 24 -12 39 -14 24 -2 58 -7 84 -13 4 0 6 -7 5 -15 0
-8 15 -25 34 -38 28 -19 36 -31 38 -61 2 -28 0 -37 -12 -37 -9 0 -16 5 -16 12
0 9 -3 9 -12 0 -23 -23 -40 -14 -38 21 1 17 2 37 1 43 -1 14 -54 26 -76 18
-21 -8 -19 -34 3 -34 19 0 42 -18 42 -32 0 -4 -9 -8 -20 -8 -11 0 -20 3 -20 8
0 4 -15 7 -34 7 -19 0 -32 -2 -30 -4 2 -2 -1 -10 -7 -18 -9 -10 -7 -13 9 -13
11 0 35 -7 55 -15 19 -8 49 -13 65 -10 25 3 33 -1 39 -18 4 -12 6 -26 5 -31
-2 -4 0 -17 4 -28 6 -19 6 -19 30 3 16 15 24 34 24 55 0 17 7 37 15 44 11 9
14 22 9 46 -4 24 -1 42 10 59 10 15 14 35 11 48 -4 16 0 29 14 41 20 18 20 18
27 -9 4 -16 2 -36 -5 -46 -6 -10 -11 -38 -11 -61 0 -24 -11 -77 -24 -118 -13
-41 -32 -111 -41 -155 -9 -44 -25 -118 -36 -165 -22 -90 -35 -153 -44 -210 -3
-19 -11 -51 -17 -71 -7 -26 -7 -42 1 -55 10 -18 11 -18 9 1 -3 44 3 65 17 65
9 0 15 9 15 21 0 12 8 28 17 35 10 7 18 20 18 30 0 11 10 20 24 24 31 7 40 30
12 30 -27 0 -27 16 -1 23 13 3 20 14 20 29 1 23 39 103 40 82 0 -7 7 -15 16
-18 13 -5 15 -1 10 19 -4 14 -2 34 4 45 9 16 8 20 -5 20 -22 0 -19 21 4 27 14
4 21 15 23 41 2 29 8 37 28 42 19 5 26 13 28 39 2 22 -2 37 -13 45 -15 11 -16
15 -4 35 11 18 21 21 44 18 18 -3 39 1 50 10 19 14 19 15 2 28 -10 7 -14 16
-9 19 19 12 19 76 0 93 -10 9 -18 24 -18 35 0 15 8 18 46 18 25 0 43 4 40 8
-2 4 -1 14 4 22 7 12 12 11 30 -5 17 -15 23 -16 29 -6 7 10 9 9 14 -3 4 -10
17 -14 44 -12 31 2 38 6 35 22 -1 10 -3 33 -4 51 -1 18 -8 35 -15 37 -17 7
-21 -3 -18 -46 4 -50 -18 -50 -31 -1 -8 35 -13 39 -59 49 -37 8 -45 13 -32 19
9 4 25 4 34 1 20 -8 85 24 80 39 -2 5 -17 11 -33 13 -39 5 -48 16 -32 41 16
26 1 54 -31 59 -14 2 -21 11 -21 26 0 31 40 121 49 108 6 -9 55 -17 94 -13 28
2 19 29 -12 36 -20 4 -28 11 -24 21 3 9 -2 14 -17 14 -14 0 -24 -8 -27 -21 -5
-16 -11 -19 -33 -14 -21 5 -31 2 -38 -11 -12 -22 -32 -9 -32 21 0 13 -4 27
-10 30 -19 12 -10 33 20 45 34 14 40 30 10 30 -11 0 -34 9 -51 19 -28 17 -29
20 -13 29 11 6 17 12 14 14 -3 2 -18 12 -33 21 -15 10 -25 22 -22 28 9 13 -17
70 -30 65 -5 -2 -9 -12 -7 -22 4 -32 2 -156 -4 -165 -2 -4 1 -17 8 -28 9 -15
10 -23 1 -32 -6 -6 -9 -27 -7 -47 4 -33 -14 -212 -32 -327 -7 -44 -22 -59 -41
-44 -21 18 -53 -1 -69 -42 -13 -31 -21 -39 -42 -39 l-25 0 21 23 c14 15 22 36
21 58 0 34 0 34 -16 12 -23 -33 -33 -28 -33 16 0 49 25 75 46 46 11 -15 11
-20 1 -27 -8 -5 -5 -8 10 -8 12 0 23 6 26 13 3 9 8 9 21 -2 14 -12 21 -12 42
-1 17 10 23 19 18 29 -16 36 -16 82 0 100 9 10 13 20 10 23 -9 10 -12 78 -3
78 5 0 9 7 9 15 0 9 -9 15 -21 15 -17 0 -20 -5 -16 -21 5 -20 3 -21 -36 -16
-23 3 -43 11 -45 16 -4 13 -32 15 -32 2 0 -5 7 -14 15 -21 21 -17 19 -30 -4
-30 -20 0 -31 18 -31 50 0 30 -18 33 -62 10 -33 -17 -43 -19 -49 -8 -5 7 -6
20 -3 28 13 31 16 58 6 64 -7 4 -5 17 5 36 18 37 11 60 -17 60 -24 0 -24 3 -3
48 12 26 14 37 5 40 -7 2 -12 12 -12 22 0 27 -17 34 -25 9 -4 -13 -1 -27 9
-38 15 -16 15 -19 1 -31 -8 -7 -14 -24 -13 -39 2 -21 -2 -27 -20 -29 -23 -4
-24 -2 -19 57 4 50 2 63 -14 77 -10 9 -19 27 -19 40 0 13 -4 25 -9 28 -5 3 -8
-12 -7 -34 0 -22 4 -40 8 -40 22 0 3 -20 -28 -30 -43 -14 -52 -8 -35 24 15 27
8 46 -15 46 -9 0 -26 13 -40 29 -18 22 -36 31 -75 36 -65 9 -85 -6 -39 -30 21
-11 36 -13 42 -7 12 12 73 -21 82 -43 7 -19 -16 -25 -29 -8 -6 8 -25 15 -43
15 -18 1 -32 5 -32 10 0 5 -13 7 -28 3 -37 -8 -52 11 -49 60 1 23 -3 40 -10
42 -9 3 -13 -7 -13 -30 0 -39 -13 -49 -49 -35 l-24 9 21 19 c20 19 21 60 1 60
-5 0 -9 9 -9 20 0 29 -27 25 -34 -5 -6 -23 -26 -36 -26 -17 0 4 -15 16 -32 27
-37 21 -78 61 -78 76 0 16 36 45 50 41 9 -3 11 1 7 11 -7 20 18 41 39 33 10
-4 14 -16 12 -35 -2 -27 15 -61 33 -61 4 0 11 9 14 21 4 11 18 24 31 29 13 5
24 14 24 20 0 5 7 10 15 10 19 0 19 -10 -2 -39 -9 -14 -11 -21 -5 -17 6 3 13
2 17 -4 4 -6 22 -7 44 -4 33 5 41 3 59 -20 18 -23 23 -25 40 -15 12 7 27 9 38
4 11 -5 23 -7 28 -6 4 1 13 -5 20 -12 16 -20 47 -30 45 -14 -1 6 1 20 6 30 4
11 3 23 -4 30 -8 8 -11 7 -11 -6 0 -21 -33 -23 -49 -3 -7 8 -19 12 -29 10 -16
-4 -52 11 -42 18 3 2 20 11 38 20 31 16 32 16 32 -2 0 -15 7 -20 25 -20 27 0
32 9 13 28 -9 9 -6 12 16 12 26 0 28 -3 24 -31 -4 -24 -1 -33 13 -36 9 -3 19
-13 22 -24 6 -23 27 -25 27 -3 0 8 -5 24 -11 36 -9 16 -7 24 10 42 15 16 18
25 10 33 -7 7 -8 17 -3 25 5 7 7 22 5 32 -1 10 3 30 10 43 19 36 -5 77 -48 81
-24 2 -34 10 -43 33 -9 21 -16 27 -23 20 -20 -20 -47 -13 -47 13 0 31 -22 50
-38 34 -15 -15 -47 13 -47 40 0 18 -5 19 -43 7 -18 -5 -25 -1 -40 24 -11 20
-25 31 -39 31 -35 0 -53 11 -54 34 -1 16 -2 17 -6 4 -5 -22 -21 -22 -47 -3
-10 8 -23 12 -27 9 -12 -7 -51 15 -44 26 3 5 -8 8 -24 8 -37 -1 -61 17 -58 44
1 12 -8 27 -23 36 -13 10 -21 12 -17 6 4 -7 -3 -14 -19 -18 -15 -4 -27 -6 -28
-4 -18 42 -35 63 -51 63 -26 1 -47 14 -42 28 5 15 -72 87 -93 87 -9 0 -30 12
-45 26 -15 14 -38 30 -52 35 -13 5 -32 23 -41 41 -16 29 -34 52 -112 136 -16
18 -30 39 -30 47 0 7 -13 19 -30 27 -17 7 -34 25 -40 42 -5 16 -20 38 -32 50
-13 11 -31 34 -42 50 l-19 29 -14 -24 c-14 -24 -14 -24 -9 7 5 29 -19 112 -37
130 -4 4 -7 18 -7 30 0 13 -9 38 -20 56 -11 18 -20 31 -20 28z m591 -836 c11
-14 10 -15 -11 -12 -13 1 -25 9 -28 16 -5 17 23 15 39 -4z m-202 -58 l23 -24
-22 -7 c-26 -8 -26 -8 -35 28 -9 33 4 35 34 3z m51 -36 c0 -5 -4 -10 -10 -10
-5 0 -10 5 -10 10 0 6 5 10 10 10 6 0 10 -4 10 -10z m415 -49 c7 -12 -12 -24
-25 -16 -11 7 -4 25 10 25 5 0 11 -4 15 -9z m-350 -11 c8 -13 -5 -13 -25 0
-13 8 -13 10 2 10 9 0 20 -4 23 -10z m75 -46 c0 -8 -5 -12 -10 -9 -6 4 -8 11
-5 16 9 14 15 11 15 -7z m350 -30 c0 -16 -16 -19 -25 -4 -8 13 4 32 16 25 5
-4 9 -13 9 -21z m132 4 c-5 -5 -20 -8 -33 -6 l-24 5 25 10 c28 12 47 6 32 -9z
m-361 -51 c-1 -12 -15 -9 -19 4 -3 6 1 10 8 8 6 -3 11 -8 11 -12z m157 -79
c17 -14 15 -28 -3 -28 -14 0 -55 34 -55 46 0 7 42 -6 58 -18z m-532 -34 c-5
-13 -10 -14 -18 -6 -6 6 -8 18 -4 28 5 13 10 14 18 6 6 -6 8 -18 4 -28z m174
-20 c0 -8 -4 -12 -10 -9 -5 3 -10 10 -10 16 0 5 5 9 10 9 6 0 10 -7 10 -16z
m431 -74 c22 -13 25 -30 4 -30 -8 0 -19 9 -25 20 -12 23 -7 25 21 10z m-492
-29 c9 -6 10 -10 2 -16 -15 -8 -41 1 -41 15 0 12 20 13 39 1z m337 -31 c3 -33
3 -34 -11 -16 -18 23 -20 59 -4 54 7 -2 13 -19 15 -38z m-266 4 c0 -8 -4 -12
-10 -9 -5 3 -10 10 -10 16 0 5 5 9 10 9 6 0 10 -7 10 -16z m355 6 c3 -5 -1
-10 -9 -10 -9 0 -16 5 -16 10 0 6 4 10 9 10 6 0 13 -4 16 -10z m125 -11 c0 -5
-4 -9 -10 -9 -5 0 -10 7 -10 16 0 8 5 12 10 9 6 -3 10 -10 10 -16z m414 -12
c-7 -20 -34 -23 -34 -4 0 19 22 39 32 29 5 -5 6 -16 2 -25z m-364 -7 c0 -5 -9
-10 -21 -10 -11 0 -17 5 -14 10 3 6 13 10 21 10 8 0 14 -4 14 -10z m106 -1
c10 -17 -13 -36 -27 -22 -12 12 -4 33 11 33 5 0 12 -5 16 -11z m78 -17 c2 -4
-3 -13 -13 -19 -20 -13 -47 -1 -37 16 8 13 42 15 50 3z m-594 -32 c0 -5 -5
-10 -11 -10 -5 0 -7 5 -4 10 3 6 8 10 11 10 2 0 4 -4 4 -10z m157 -47 c-3 -3
-11 -2 -17 2 -8 5 -7 11 2 22 12 15 13 14 16 -1 2 -10 1 -20 -1 -23z m-69 9
c3 -9 -2 -13 -14 -10 -9 1 -19 9 -22 16 -3 9 2 13 14 10 9 -1 19 -9 22 -16z
m-268 -52 c0 -18 -2 -19 -20 -8 -11 7 -20 16 -20 20 0 5 9 8 20 8 13 0 20 -7
20 -20z m123 -21 c-13 -13 -65 -8 -70 8 -3 7 9 13 29 15 38 4 57 -7 41 -23z
m96 2 c9 -6 10 -10 2 -15 -16 -10 -73 3 -65 15 7 11 45 12 63 0z m186 -31 c11
-17 -5 -32 -21 -19 -7 6 -11 15 -8 20 7 12 21 11 29 -1z m-341 -26 c8 -32 -6
-51 -22 -31 -12 14 -5 57 8 57 4 0 11 -12 14 -26z m134 -5 c55 3 55 -22 0 -27
-30 -3 -37 -8 -45 -35 -8 -28 -13 -32 -41 -29 -31 3 -32 2 -32 -32 0 -44 -25
-49 -41 -9 -17 45 -8 68 26 69 52 1 55 3 55 32 0 33 8 44 23 35 6 -4 31 -6 55
-4z m322 -10 c-43 -12 -54 -11 -41 5 7 8 22 11 39 8 l27 -6 -25 -7z m-517 -4
c-4 -15 -36 -12 -41 3 -3 9 3 13 19 10 13 -1 23 -7 22 -13z m220 -31 c-7 -3
-9 -12 -6 -20 6 -16 -5 -18 -27 -4 -13 9 -13 11 0 20 8 5 22 9 30 9 9 0 11 -2
3 -5z m162 -5 c-4 -6 -10 -8 -13 -5 -3 4 -16 -1 -30 -10 -16 -11 -27 -13 -34
-6 -7 7 0 14 23 20 46 14 61 14 54 1z m138 -52 c-7 -42 -21 -56 -33 -37 -7 10
-5 19 6 27 9 6 13 16 9 22 -8 14 3 33 15 26 5 -3 7 -20 3 -38z m-520 22 c-8
-8 -16 -8 -30 0 -16 9 -14 10 12 11 21 0 26 -3 18 -11z m397 -9 c0 -5 -5 -10
-11 -10 -5 0 -7 5 -4 10 3 6 8 10 11 10 2 0 4 -4 4 -10z m-400 -30 c0 -13 -6
-20 -17 -19 -11 0 -13 3 -5 6 6 2 12 11 12 19 0 8 2 14 5 14 3 0 5 -9 5 -20z
m679 -21 c-15 -9 -32 -2 -24 11 3 5 13 6 21 3 12 -4 13 -8 3 -14z m-74 -19 c4
-6 -7 -10 -25 -10 -18 0 -29 4 -25 10 3 6 15 10 25 10 10 0 22 -4 25 -10z
m175 0 c0 -5 -7 -10 -16 -10 -8 0 -12 5 -9 10 3 6 10 10 16 10 5 0 9 -4 9 -10z
m-782 -43 c2 -10 -3 -17 -12 -17 -10 0 -16 -9 -17 -22 -1 -19 -2 -18 -10 7 -5
17 -7 36 -4 43 7 19 39 11 43 -11z m852 13 c0 -5 -7 -10 -15 -10 -8 0 -15 5
-15 10 0 6 7 10 15 10 8 0 15 -4 15 -10z m-324 -24 c15 -12 17 -17 6 -28 -10
-10 -14 -9 -18 9 -3 12 -13 24 -23 26 -13 4 -14 5 0 6 8 0 24 -5 35 -13z m339
-36 c8 -13 -15 -13 -35 0 -12 8 -11 10 7 10 12 0 25 -4 28 -10z m-365 -20 c0
-5 -5 -10 -11 -10 -5 0 -7 5 -4 10 3 6 8 10 11 10 2 0 4 -4 4 -10z m190 -5 c9
-11 10 -15 0 -15 -8 0 -9 -10 -5 -29 9 -41 -7 -46 -51 -16 -20 14 -43 25 -50
25 -7 0 -16 5 -20 11 -7 12 20 8 60 -7 11 -4 19 2 26 20 11 30 22 33 40 11z
m-702 -37 c-7 -19 -38 -22 -38 -4 0 10 9 16 21 16 12 0 19 -5 17 -12z m1036
-14 c5 -14 4 -15 -9 -4 -17 14 -19 20 -6 20 5 0 12 -7 15 -16z m-212 -20 c-4
-15 -85 -11 -90 4 -3 10 7 13 44 9 27 -2 48 -8 46 -13z m-995 -36 c-3 -7 -5
-2 -5 12 0 14 2 19 5 13 2 -7 2 -19 0 -25z m863 -2 c0 -8 -5 -18 -10 -21 -17
-11 -7 -49 15 -56 18 -6 18 -7 3 -13 -11 -5 -28 1 -48 15 -27 20 -29 25 -16
35 9 6 16 14 16 18 0 10 23 35 33 36 4 0 7 -6 7 -14z m220 -11 c-7 -8 -19 -15
-26 -15 -8 0 -14 7 -14 15 0 10 10 15 26 15 22 0 25 -2 14 -15z m109 -16 c20
-16 21 -20 7 -25 -21 -8 -20 -40 2 -54 13 -8 11 -9 -13 -4 -56 11 -65 15 -65
29 0 8 8 18 17 23 16 9 16 11 0 27 -40 39 2 43 52 4z m-229 -13 c0 -3 -4 -8
-10 -11 -5 -3 -10 -1 -10 4 0 6 5 11 10 11 6 0 10 -2 10 -4z m707 -48 c-3 -8
-6 -5 -6 6 -1 11 2 17 5 13 3 -3 4 -12 1 -19z m-620 -13 c-12 -25 -57 -36 -57
-14 0 15 31 38 52 39 14 0 14 -4 5 -25z m-93 9 c22 -8 20 -33 -1 -29 -10 2
-21 4 -25 4 -11 1 -10 31 1 31 5 0 16 -3 25 -6z m373 -41 c14 -35 16 -36 29
-19 9 13 20 17 36 13 16 -5 30 1 50 20 15 15 30 24 33 21 11 -10 -27 -68 -45
-68 -29 0 -50 -11 -50 -26 0 -8 9 -14 20 -14 11 0 20 -4 20 -10 0 -5 7 -10 15
-10 8 0 15 -7 15 -15 0 -20 -20 -19 -36 3 -10 14 -16 15 -32 5 -25 -15 -44 -2
-44 31 0 15 -6 26 -14 26 -8 0 -14 -9 -14 -21 0 -13 -10 -23 -30 -30 -39 -14
-42 -42 -3 -33 25 7 26 6 21 -27 -4 -22 -1 -42 8 -54 8 -10 14 -22 14 -26 0
-12 -63 -20 -74 -9 -5 5 -20 10 -33 10 -21 0 -23 5 -23 46 0 45 13 83 33 96 7
4 8 14 1 30 -15 35 -6 78 16 78 10 0 20 -7 24 -15 10 -26 29 -17 22 10 -10 41
23 31 41 -12z m-517 17 c0 -5 -7 -10 -15 -10 -8 0 -15 5 -15 10 0 6 7 10 15
10 8 0 15 -4 15 -10z m270 -5 c-7 -8 -18 -15 -24 -15 -6 0 -2 7 8 15 25 19 32
19 16 0z m84 -11 c21 -8 21 -30 0 -38 -21 -8 -34 1 -34 25 0 20 8 23 34 13z
m-354 -39 c0 -8 -4 -15 -10 -15 -5 0 -10 7 -10 15 0 8 5 15 10 15 6 0 10 -7
10 -15z m155 -5 c3 -5 -1 -10 -9 -10 -9 0 -19 0 -23 -1 -4 0 -9 4 -11 10 -5
14 35 14 43 1z m-621 -6 c19 -7 21 -30 4 -37 -7 -2 -21 0 -31 5 -15 7 -16 12
-6 24 13 16 12 16 33 8z m666 -4 c0 -5 -4 -10 -10 -10 -5 0 -10 5 -10 10 0 6
5 10 10 10 6 0 10 -4 10 -10z m155 -30 c9 -15 -14 -40 -36 -40 -19 0 -27 29
-12 43 10 11 41 8 48 -3z m-685 -30 c0 -5 -5 -10 -11 -10 -5 0 -7 5 -4 10 3 6
8 10 11 10 2 0 4 -4 4 -10z m-104 -25 c12 -32 -2 -37 -31 -12 l-30 26 28 1
c15 0 30 -7 33 -15z m270 -30 c3 -18 2 -19 -10 -3 -9 13 -16 14 -24 6 -12 -12
-62 -3 -62 13 0 6 19 9 47 7 37 -2 47 -7 49 -23z m1044 15 c0 -5 -7 -10 -15
-10 -8 0 -15 5 -15 10 0 6 7 10 15 10 8 0 15 -4 15 -10z m-905 -21 c8 -25 -7
-44 -29 -36 -12 5 -13 10 -3 31 15 31 24 33 32 5z m359 15 c21 -8 21 -40 0
-48 -22 -9 -34 1 -34 30 0 25 7 28 34 18z m-692 -70 c4 -36 -4 -50 -22 -39
-11 7 -14 58 -3 68 14 14 21 6 25 -29z m83 26 c3 -5 25 -9 49 -8 53 1 88 -10
83 -25 -8 -23 -167 5 -167 29 0 16 26 19 35 4z m1245 -21 c0 -5 -12 -9 -27 -9
-27 1 -27 1 -9 15 19 14 36 12 36 -6z m-680 -29 c-8 -5 -19 -10 -25 -10 -5 0
-3 5 5 10 8 5 20 10 25 10 6 0 3 -5 -5 -10z m-1074 -57 c-10 -10 -19 5 -10 18
6 11 8 11 12 0 2 -7 1 -15 -2 -18z m1072 -1 c2 -7 -4 -12 -13 -12 -13 0 -16
-6 -11 -24 4 -16 0 -29 -14 -41 -19 -18 -20 -17 -20 9 0 52 45 105 58 68z
m-144 -1 c3 -5 16 -7 27 -4 19 5 20 3 14 -18 -10 -31 -17 -37 -22 -21 -3 7
-16 17 -29 22 -13 5 -24 14 -24 20 0 12 27 13 34 1z m-580 -41 c33 -12 34 -40
3 -40 -28 0 -47 17 -40 36 6 17 5 17 37 4z m596 -54 c0 -3 -4 -8 -10 -11 -5
-3 -10 -1 -10 4 0 6 5 11 10 11 6 0 10 -2 10 -4z m665 -26 c3 -5 -1 -10 -10
-10 -9 0 -13 5 -10 10 3 6 8 10 10 10 2 0 7 -4 10 -10z"/>
<path d="M373 8609 c-14 -14 -6 -39 13 -39 8 0 14 10 14 25 0 27 -9 32 -27 14z"/>
<path d="M899 8593 c-13 -16 -12 -17 4 -4 16 13 21 21 13 21 -2 0 -10 -8 -17
-17z"/>
<path d="M537 8573 c-2 -5 -7 -20 -11 -35 -5 -21 -3 -28 9 -28 11 0 15 10 15
35 0 34 -4 43 -13 28z"/>
<path d="M839 8550 c-19 -16 -29 -29 -24 -29 12 0 69 48 63 54 -2 3 -20 -9
-39 -25z"/>
<path d="M450 8520 c0 -11 5 -20 10 -20 6 0 10 9 10 20 0 11 -4 20 -10 20 -5
0 -10 -9 -10 -20z"/>
<path d="M295 8014 c-129 -10 -175 -16 -170 -25 4 -5 17 -9 31 -9 17 0 24 -5
24 -19 0 -11 -4 -23 -10 -26 -17 -11 -11 -25 15 -37 14 -6 25 -19 25 -30 0
-10 7 -18 16 -18 9 0 14 -7 12 -17 -2 -9 -6 -15 -9 -12 -9 6 -39 -22 -39 -38
0 -7 10 -17 23 -22 15 -6 23 -17 24 -37 1 -16 7 -56 13 -89 17 -91 11 -217
-11 -231 -14 -8 -11 -24 5 -24 7 0 16 -9 19 -21 4 -16 2 -19 -11 -13 -9 4 -32
8 -49 8 -18 0 -33 3 -33 8 0 4 7 8 15 8 19 0 19 16 0 23 -8 4 -21 21 -29 39
-9 18 -20 40 -24 48 -28 47 -72 154 -72 174 0 23 -16 36 -46 36 -12 0 -14 -36
-14 -214 0 -118 4 -216 9 -218 29 -11 69 -147 132 -448 30 -147 76 -314 98
-364 12 -25 21 -47 21 -50 0 -37 380 -622 481 -741 10 -11 65 -80 123 -153
l105 -132 -58 -29 c-170 -86 -277 -211 -333 -391 -19 -62 -23 -96 -23 -200 1
-199 50 -327 166 -434 110 -102 243 -150 518 -186 85 -11 173 -25 195 -31 89
-24 128 -76 129 -171 0 -82 -35 -133 -118 -168 -54 -22 -73 -25 -195 -24 -185
1 -332 38 -424 109 l-43 33 -166 -165 -165 -165 40 -36 c166 -150 361 -219
673 -237 201 -13 395 23 555 101 78 39 110 62 176 128 133 134 175 244 175
464 0 164 -24 264 -83 353 -109 163 -259 230 -618 274 -159 20 -221 38 -265
76 -70 61 -69 151 1 229 61 67 187 97 233 56 12 -11 21 -25 21 -33 0 -7 5 -13
11 -13 7 0 5 10 -5 25 -9 14 -15 25 -14 26 2 1 26 3 55 5 83 7 176 -20 248
-71 l62 -44 162 162 162 162 -58 53 c-55 51 -238 152 -275 152 -16 0 -58 36
-58 50 0 5 5 12 10 15 6 3 7 17 4 31 -7 26 17 86 46 119 10 11 20 34 22 50 2
20 11 33 26 40 12 5 22 16 22 23 0 13 -26 51 -66 96 -9 10 -100 183 -201 385
-202 400 -248 487 -263 496 -11 7 -5 -13 35 -100 15 -33 38 -89 51 -124 21
-57 22 -65 8 -86 -8 -12 -12 -30 -8 -39 8 -20 24 -21 24 -1 0 8 6 15 14 15 16
0 29 -27 17 -34 -5 -3 -6 -36 -3 -74 3 -51 0 -76 -12 -100 -9 -18 -20 -32 -24
-32 -19 1 -33 20 -30 41 2 20 -2 25 -27 27 -16 2 -39 11 -49 20 -14 13 -20 14
-23 4 -8 -23 -23 -1 -17 25 6 21 3 24 -12 21 -28 -5 -31 -67 -5 -109 12 -19
21 -42 21 -52 0 -10 6 -20 14 -23 8 -3 18 -24 21 -47 4 -24 20 -59 38 -81 28
-36 30 -45 29 -110 -2 -66 15 -146 51 -241 7 -16 12 -32 13 -35 5 -30 19 -69
31 -88 18 -29 17 -29 -132 -36 -66 -3 -147 -12 -180 -20 -84 -21 -104 -20
-114 7 -5 12 -30 44 -55 70 -25 27 -46 54 -46 61 0 6 -12 23 -27 37 -16 13
-43 45 -62 69 -19 25 -41 52 -48 60 -7 8 -39 51 -70 95 -31 44 -84 118 -117
165 -163 228 -233 349 -276 476 -25 71 -25 82 -2 61 17 -15 19 -15 35 0 14 14
18 14 32 3 9 -8 33 -13 52 -12 24 2 39 -3 48 -15 19 -26 27 -11 17 33 -11 52
-5 73 17 67 22 -6 35 33 25 71 -3 14 -2 31 2 38 21 33 7 141 -22 178 -15 18
-54 128 -54 150 0 21 -63 90 -82 90 -19 0 -108 122 -108 149 0 32 53 60 115
60 66 0 85 -11 56 -31 l-22 -15 24 -16 c18 -11 26 -28 29 -61 3 -25 18 -66 33
-91 24 -42 28 -45 43 -31 13 11 22 12 36 4 10 -6 16 -6 13 -1 -3 5 -10 45 -16
89 -9 75 -11 81 -50 114 -23 20 -41 40 -41 46 0 6 11 21 24 33 14 13 42 52 62
88 21 35 50 76 64 90 72 72 208 98 254 48 14 -15 34 -25 52 -25 31 0 99 -22
143 -45 49 -25 89 -77 96 -125 10 -61 21 -79 43 -73 11 2 41 -9 69 -26 27 -17
68 -37 89 -45 22 -7 68 -28 102 -45 34 -17 64 -31 68 -31 3 0 -14 23 -38 51
-23 28 -56 67 -71 87 -55 73 -434 446 -512 504 -44 34 -111 76 -149 94 -38 19
-75 39 -82 45 -7 6 -48 22 -91 35 -78 25 -189 35 -288 28z m1165 -1944 c0 -5
-5 -10 -11 -10 -5 0 -7 5 -4 10 3 6 8 10 11 10 2 0 4 -4 4 -10z"/>
<path d="M2122 7878 c3 -7 13 -15 22 -16 12 -3 17 1 14 10 -3 7 -13 15 -22 16
-12 3 -17 -1 -14 -10z"/>
<path d="M2920 7270 c0 -5 5 -10 11 -10 5 0 7 5 4 10 -3 6 -8 10 -11 10 -2 0
-4 -4 -4 -10z"/>
<path d="M3087 7193 c-3 -5 -2 -15 2 -22 7 -10 10 -10 16 -1 4 6 3 16 -3 22
-5 5 -12 6 -15 1z"/>
<path d="M2485 7170 c-3 -5 -1 -10 4 -10 6 0 11 5 11 10 0 6 -2 10 -4 10 -3 0
-8 -4 -11 -10z"/>
<path d="M2930 7170 c0 -5 5 -10 11 -10 5 0 7 5 4 10 -3 6 -8 10 -11 10 -2 0
-4 -4 -4 -10z"/>
<path d="M2560 7152 c0 -24 34 -72 50 -72 24 0 17 22 -17 56 -25 26 -33 29
-33 16z"/>
<path d="M2970 7150 c0 -5 5 -10 10 -10 6 0 10 5 10 10 0 6 -4 10 -10 10 -5 0
-10 -4 -10 -10z"/>
<path d="M2530 7119 c0 -5 5 -7 10 -4 6 3 10 8 10 11 0 2 -4 4 -10 4 -5 0 -10
-5 -10 -11z"/>
<path d="M3053 7100 c-4 -13 -14 -20 -32 -21 -21 -1 -22 -2 -6 -6 11 -3 26
-10 33 -15 9 -8 18 -6 31 6 15 14 24 15 40 6 24 -12 26 -28 7 -52 -14 -20 -36
-24 -36 -8 0 6 -4 10 -10 10 -15 0 -12 -23 5 -46 14 -18 16 -18 28 -2 11 13
16 15 25 6 7 -7 12 -18 12 -25 0 -7 7 -13 15 -13 8 0 15 4 15 9 0 5 -7 14 -15
21 -15 13 -20 65 -9 94 6 15 8 15 20 -1 11 -14 13 -15 13 -3 0 21 -65 60 -101
60 -21 0 -31 -6 -35 -20z"/>
<path d="M2745 7090 c-8 -13 4 -32 16 -25 12 8 12 35 0 35 -6 0 -13 -4 -16
-10z"/>
<path d="M2877 7074 c-6 -34 1 -54 19 -54 17 0 17 27 0 59 l-13 24 -6 -29z"/>
<path d="M2800 7063 c1 -10 7 -29 14 -42 11 -20 14 -21 19 -7 7 18 -11 66 -25
66 -4 0 -8 -8 -8 -17z"/>
<path d="M3200 7062 c0 -8 43 -32 55 -32 15 0 1 19 -20 28 -31 14 -35 15 -35
4z"/>
<path d="M3446 7005 c-7 -18 -43 -20 -49 -2 -2 6 -7 9 -11 5 -12 -11 27 -48
51 -48 19 0 23 5 23 30 0 33 -5 38 -14 15z"/>
<path d="M3500 6970 c0 -5 5 -10 10 -10 6 0 10 5 10 10 0 6 -4 10 -10 10 -5 0
-10 -4 -10 -10z"/>
<path d="M3585 6970 c3 -5 8 -10 11 -10 2 0 4 5 4 10 0 6 -5 10 -11 10 -5 0
-7 -4 -4 -10z"/>
<path d="M3064 6929 c-3 -6 -1 -16 5 -22 8 -8 11 -5 11 11 0 24 -5 28 -16 11z"/>
<path d="M3456 6921 c-8 -12 20 -22 39 -15 19 8 9 24 -15 24 -10 0 -21 -4 -24
-9z"/>
<path d="M3063 6863 c-13 -9 -23 -26 -23 -40 0 -35 20 -24 35 20 7 20 12 37
11 36 0 0 -11 -7 -23 -16z"/>
<path d="M3392 6858 c3 -7 13 -15 22 -16 12 -3 17 1 14 10 -3 7 -13 15 -22 16
-12 3 -17 -1 -14 -10z"/>
<path d="M3516 6861 c-8 -12 18 -21 59 -21 37 0 54 14 29 24 -24 9 -82 7 -88
-3z"/>
<path d="M3653 6845 c11 -7 26 -11 34 -8 12 5 12 7 1 14 -7 5 -22 9 -33 9 -19
-1 -19 -1 -2 -15z"/>
<path d="M3768 6843 c7 -3 16 -2 19 1 4 3 -2 6 -13 5 -11 0 -14 -3 -6 -6z"/>
<path d="M3835 6840 c3 -5 8 -10 11 -10 2 0 4 5 4 10 0 6 -5 10 -11 10 -5 0
-7 -4 -4 -10z"/>
<path d="M3133 6833 c-28 -5 -31 -23 -4 -23 10 0 24 -7 31 -15 17 -21 -1 -40
-38 -40 -16 0 -28 -6 -30 -16 -2 -12 8 -18 39 -22 24 -3 51 -1 60 4 13 7 21 5
28 -8 7 -14 13 -15 21 -7 9 9 8 17 -1 32 -10 16 -10 23 0 36 14 17 7 36 -14
36 -7 0 -16 -14 -20 -31 -9 -39 -19 -29 -20 19 0 38 -8 44 -52 35z"/>
<path d="M3462 6798 c7 -20 48 -23 48 -4 0 11 -9 16 -26 16 -16 0 -24 -5 -22
-12z"/>
<path d="M3551 6796 c12 -10 60 -16 54 -6 -3 5 -18 10 -32 10 -15 0 -24 -2
-22 -4z"/>
<path d="M3775 6790 c-38 -5 -42 -7 -17 -8 18 -1 41 -8 52 -14 15 -9 22 -10
31 -1 11 11 4 34 -9 31 -4 0 -29 -4 -57 -8z"/>
<path d="M3906 6783 c-11 -11 -6 -23 9 -23 8 0 15 4 15 9 0 13 -16 22 -24 14z"/>
<path d="M3050 6760 c0 -5 5 -10 10 -10 6 0 10 5 10 10 0 6 -4 10 -10 10 -5 0
-10 -4 -10 -10z"/>
<path d="M3613 6729 c12 -7 27 -7 45 0 25 9 24 9 -18 10 -36 0 -41 -2 -27 -10z"/>
<path d="M3060 6710 c0 -5 5 -10 11 -10 5 0 7 5 4 10 -3 6 -8 10 -11 10 -2 0
-4 -4 -4 -10z"/>
<path d="M3740 6700 c9 -16 8 -20 -5 -20 -37 0 -5 -25 35 -28 39 -3 42 -2 31
12 -8 9 -21 16 -30 16 -12 0 -10 5 9 20 l25 20 -38 0 c-35 0 -37 -2 -27 -20z"/>
<path d="M3952 6709 c5 -17 48 -25 48 -10 0 6 -4 11 -9 11 -5 0 -17 3 -27 7
-12 4 -15 2 -12 -8z"/>
<path d="M3618 6689 c-10 -7 -10 -11 0 -21 10 -10 16 -10 33 0 11 7 25 10 31
6 6 -4 8 -3 5 3 -9 14 -53 22 -69 12z"/>
<path d="M3170 6675 c0 -10 7 -15 18 -13 21 4 19 22 -2 26 -10 2 -16 -3 -16
-13z"/>
<path d="M3905 6660 c3 -5 11 -10 16 -10 6 0 7 5 4 10 -3 6 -11 10 -16 10 -6
0 -7 -4 -4 -10z"/>
<path d="M3545 6630 c-3 -5 1 -10 10 -10 9 0 13 5 10 10 -3 6 -8 10 -10 10 -2
0 -7 -4 -10 -10z"/>
<path d="M3700 6626 c0 -18 27 -29 36 -14 4 5 0 14 -7 19 -20 13 -29 11 -29
-5z"/>
<path d="M3595 6610 c-3 -5 -1 -10 4 -10 6 0 11 5 11 10 0 6 -2 10 -4 10 -3 0
-8 -4 -11 -10z"/>
<path d="M3635 6610 c-3 -5 1 -10 9 -10 9 0 16 5 16 10 0 6 -4 10 -9 10 -6 0
-13 -4 -16 -10z"/>
<path d="M4050 6610 c0 -5 9 -10 21 -10 11 0 17 5 14 10 -3 6 -13 10 -21 10
-8 0 -14 -4 -14 -10z"/>
<path d="M4719 6608 c-1 -7 -1 -32 1 -56 3 -62 -19 -145 -37 -138 -7 3 -23 0
-34 -7 -17 -10 -23 -9 -39 11 -25 30 -28 28 -24 -18 3 -29 -1 -42 -11 -46 -21
-9 -18 -21 6 -27 28 -7 15 -27 -18 -27 -20 0 -24 4 -20 20 6 23 -8 37 -42 42
-14 1 -27 9 -29 17 -4 11 2 13 27 8 17 -4 31 -3 31 1 0 13 -42 34 -49 25 -3
-5 -14 -12 -23 -16 -11 -4 -15 -12 -12 -22 4 -9 0 -15 -9 -15 -23 0 -31 18
-16 36 6 8 9 17 6 21 -9 9 -55 15 -117 17 -49 1 -55 -1 -55 -19 0 -15 6 -19
23 -18 13 2 22 -3 22 -11 0 -8 6 -16 13 -19 6 -3 -8 -2 -33 1 l-45 5 19 -21
c13 -15 28 -21 50 -19 25 2 32 7 34 29 3 28 27 44 38 26 9 -14 13 -78 5 -78
-3 -1 -41 -2 -85 -3 -76 -2 -78 -1 -92 25 -8 15 -26 34 -41 41 l-26 14 32 11
c57 20 24 35 -73 33 -22 0 -45 4 -52 10 -19 16 -51 -16 -35 -35 14 -16 4 -26
-25 -26 -27 0 -36 -11 -24 -30 7 -11 12 -11 23 -2 10 9 21 9 44 0 16 -6 39 -8
49 -4 18 7 17 9 -9 28 -30 22 -28 38 7 38 27 0 46 -18 39 -36 -3 -8 1 -14 10
-14 18 0 29 -24 21 -45 -7 -16 -30 -20 -38 -6 -3 4 -26 2 -51 -7 -42 -13 -47
-13 -65 3 -15 13 -23 15 -33 7 -9 -8 -17 -8 -24 -1 -11 11 -93 1 -93 -11 0 -5
2 -14 5 -22 6 -16 71 -16 88 1 16 16 31 14 60 -9 24 -19 28 -20 55 -6 16 8 32
12 36 9 5 -5 134 -31 163 -32 6 -1 9 7 6 19 -8 30 21 25 57 -10 17 -16 37 -30
45 -30 8 0 15 -5 15 -11 0 -6 -12 -9 -27 -7 -26 3 -28 0 -27 -28 1 -24 -4 -35
-22 -45 -15 -7 -24 -21 -24 -36 0 -24 -7 -27 -34 -17 -17 7 -22 44 -6 44 16 0
12 27 -5 34 -8 3 -15 17 -15 31 0 25 -2 26 -47 24 -27 -1 -61 4 -76 10 -35 14
-47 7 -47 -25 0 -28 -25 -43 -43 -25 -15 15 -27 14 -27 -3 0 -23 20 -31 75
-31 38 0 50 -4 50 -15 0 -8 -7 -15 -15 -16 -36 -2 -40 -5 -40 -28 0 -15 7 -26
20 -29 11 -3 20 -12 20 -20 0 -8 7 -17 15 -21 9 -3 15 0 15 9 0 19 -4 20 66
-14 59 -29 59 -29 81 -9 17 16 23 17 30 6 4 -8 23 -25 41 -38 17 -13 32 -30
32 -37 0 -20 17 -15 23 7 4 17 11 19 39 14 49 -10 68 -22 68 -45 0 -11 -4 -18
-9 -14 -5 3 -12 1 -15 -3 -6 -10 29 -43 62 -61 17 -9 19 -18 15 -53 -7 -57
-18 -67 -43 -40 -11 11 -20 25 -20 31 0 13 -28 22 -36 10 -11 -19 6 -99 22
-99 8 0 14 5 14 11 0 6 9 8 23 3 31 -9 34 -14 14 -25 -9 -6 -17 -21 -17 -34 0
-13 -4 -27 -10 -30 -16 -10 -12 -35 5 -29 8 4 15 16 15 28 0 12 9 27 20 34 14
9 20 23 20 50 0 21 7 47 15 58 8 10 15 33 15 49 0 17 10 55 21 85 12 30 23 72
24 93 2 21 11 47 20 57 10 11 15 26 11 35 -3 9 0 26 6 38 7 12 13 24 13 27 3
22 41 90 51 90 13 0 12 -26 -5 -80 -13 -43 -13 -43 -1 -35 21 13 23 -26 2 -41
-19 -13 -20 -18 -9 -41 8 -19 9 -27 1 -30 -6 -2 -19 -10 -29 -17 -17 -12 -17
-14 5 -43 12 -17 20 -36 16 -41 -3 -5 1 -15 9 -22 23 -19 18 -28 -11 -22 -19
3 -25 1 -20 -7 4 -6 14 -11 22 -11 16 0 19 -36 3 -45 -6 -5 -4 -11 7 -19 10
-8 14 -18 10 -25 -4 -6 -2 -19 5 -27 10 -13 10 -17 -2 -25 -8 -5 -18 -7 -24
-5 -9 3 -11 10 -14 59 -2 26 -21 20 -21 -7 0 -13 -7 -29 -15 -36 -14 -12 -11
-17 20 -42 19 -16 35 -37 35 -45 0 -14 2 -14 18 0 21 20 32 13 32 -19 0 -15 7
-24 23 -27 l22 -4 -22 -2 c-13 0 -23 -6 -23 -12 0 -6 9 -9 20 -6 11 3 20 1 20
-4 0 -5 9 -9 20 -9 13 0 20 -7 20 -19 0 -13 10 -21 33 -26 17 -4 26 -9 20 -12
-7 -2 -13 -11 -13 -19 0 -19 -59 -19 -66 1 -8 19 -54 20 -54 1 0 -22 -44 -28
-185 -26 -71 1 -143 2 -158 1 l-28 -1 4 -1067 4 -1068 204 -5 c112 -3 184 -7
160 -8 -34 -2 -42 -5 -37 -17 3 -8 1 -15 -4 -15 -5 0 -7 -7 -3 -16 4 -10 9
-12 16 -5 15 15 37 1 37 -23 0 -12 -7 -32 -16 -44 -9 -13 -13 -30 -9 -40 4 -9
9 -29 12 -44 3 -23 1 -28 -16 -28 -23 0 -26 -11 -11 -38 12 -21 33 -77 28 -77
-2 -1 5 -13 14 -27 17 -26 17 -27 -5 -45 -28 -23 -52 -73 -34 -73 6 0 18 4 26
9 8 5 20 7 27 4 11 -4 11 -9 -1 -26 -8 -12 -12 -31 -9 -44 5 -18 2 -23 -13
-23 -22 0 -63 43 -63 66 0 13 -4 11 -18 -6 -14 -17 -24 -21 -42 -15 -20 6 -21
9 -7 17 23 13 21 29 -8 60 -14 15 -25 36 -25 47 0 17 -5 20 -29 15 -23 -5 -36
0 -58 20 -15 14 -31 26 -35 26 -5 0 -8 7 -8 15 0 8 -9 23 -19 32 -11 9 -26 36
-33 60 -7 24 -16 43 -20 43 -4 0 -8 9 -8 21 0 15 -5 19 -15 15 -10 -4 -17 4
-23 27 -5 18 -14 33 -20 33 -7 1 -19 2 -27 3 -23 2 -18 21 5 21 38 0 22 29
-17 32 -35 3 -38 5 -35 30 2 19 -3 28 -18 33 -11 3 -20 11 -20 16 0 6 -4 7
-10 4 -5 -3 -17 3 -27 15 -20 24 -51 26 -59 5 -4 -9 -19 -15 -35 -15 -17 0
-39 -9 -51 -20 -12 -11 -29 -20 -39 -20 -9 0 -20 -7 -23 -16 -8 -22 -8 -22 12
-27 13 -3 10 -7 -13 -16 -54 -21 -75 -34 -75 -48 0 -7 7 -13 15 -13 8 0 15 -8
14 -17 0 -10 -3 -13 -5 -7 -6 14 -54 5 -54 -10 0 -11 40 -57 74 -84 20 -16 21
-41 2 -48 -21 -8 -205 74 -252 112 -22 19 -49 34 -59 34 -10 0 -25 8 -34 17
-20 22 -74 53 -92 53 -7 0 -24 11 -38 24 -23 21 -28 23 -44 11 -18 -13 -17
-14 2 -20 22 -7 27 -20 12 -29 -5 -3 -7 -15 -4 -26 4 -15 2 -19 -9 -15 -16 6
-88 -31 -88 -45 0 -4 -14 -10 -31 -12 -25 -4 -32 -1 -40 19 -6 17 -16 23 -39
23 -17 0 -30 5 -31 13 0 6 -4 2 -9 -10 -13 -32 -85 -34 -95 -3 -7 23 -45 27
-45 5 0 -24 -61 -20 -67 5 -6 24 -19 25 -68 4 -30 -12 -44 -13 -63 -5 -23 11
-22 9 9 -31 18 -24 45 -57 59 -74 14 -17 39 -48 55 -69 17 -21 64 -73 105
-115 66 -69 117 -125 172 -186 9 -10 40 -41 70 -67 29 -26 75 -68 102 -93 27
-24 53 -44 58 -44 4 0 8 -4 8 -10 0 -18 -24 -11 -52 15 -15 14 -29 25 -32 25
-9 0 -106 101 -106 110 0 6 -6 10 -13 10 -12 0 -388 366 -472 459 -34 37 -41
41 -43 25 -6 -33 -22 -40 -22 -10 0 25 -2 27 -16 15 -14 -11 -18 -10 -30 5 -7
10 -15 23 -17 29 -2 6 -17 10 -35 10 -20 0 -32 5 -32 14 0 11 -4 11 -20 1 -17
-11 -22 -10 -29 1 -5 7 -28 14 -52 15 -24 1 -54 8 -66 14 -31 17 -33 16 -33
-18 0 -20 5 -30 15 -30 10 0 15 -10 15 -30 0 -18 -5 -30 -13 -30 -27 0 -29
-469 -3 -598 14 -73 19 -120 17 -151 -1 -11 -4 -11 -17 0 -13 10 -17 10 -25
-2 -5 -8 -9 -21 -9 -30 0 -24 67 -224 91 -269 31 -59 46 -146 59 -350 16 -230
8 -571 -13 -603 -9 -14 -16 -63 -20 -132 -13 -234 -40 -346 -87 -358 -11 -3
-20 -13 -20 -24 0 -10 -8 -26 -19 -35 -16 -14 -17 -22 -9 -64 5 -27 13 -62 18
-79 4 -16 11 -47 15 -67 5 -32 10 -38 30 -38 14 0 25 -5 25 -11 0 -10 11 -24
63 -81 16 -16 18 -33 15 -109 l-3 -89 2328 0 2328 0 -12 23 c-87 165 -331 560
-542 877 -115 173 -172 251 -297 411 -41 53 -100 131 -130 174 -30 43 -70 96
-87 117 -54 66 -42 75 37 28 28 -17 53 -30 55 -30 4 0 132 -60 550 -260 61
-29 170 -79 243 -112 74 -32 141 -63 150 -68 17 -10 85 -41 271 -126 93 -42
96 -42 130 -27 20 8 59 23 86 33 28 10 73 27 100 38 28 11 82 32 120 46 80 30
111 43 365 156 102 46 222 99 268 119 45 20 82 42 82 49 0 7 -15 37 -34 66
-18 29 -36 61 -40 72 -10 31 -226 466 -245 493 -10 15 -22 37 -26 51 -14 50
-120 253 -136 263 -9 6 -15 17 -12 24 7 18 -17 45 -35 38 -8 -3 -20 -1 -26 4
-10 9 -108 46 -151 58 -11 3 -27 11 -35 18 -8 7 -58 29 -110 50 -52 21 -99 42
-105 46 -5 4 -46 21 -90 39 -44 17 -108 45 -141 61 -34 16 -65 29 -69 29 -4 0
-51 21 -104 46 -53 25 -143 69 -201 96 -58 27 -130 62 -160 78 -132 67 -257
109 -328 110 -30 0 -33 -2 -27 -22 4 -13 15 -32 25 -43 29 -33 26 -117 -5
-155 -8 -9 -12 -36 -10 -65 1 -29 -4 -59 -12 -71 -7 -11 -10 -24 -6 -27 3 -4
1 -7 -6 -7 -6 0 -14 7 -17 15 -4 8 -18 15 -34 15 -16 0 -30 -7 -34 -15 -3 -8
-10 -15 -15 -15 -15 0 -22 31 -10 46 8 10 2 13 -32 16 -50 4 -62 24 -23 39 22
8 25 12 14 19 -8 5 -22 3 -34 -5 -14 -9 -28 -10 -44 -4 -28 11 -26 42 3 47 30
6 42 21 25 32 -25 16 -50 11 -78 -15 -32 -30 -58 -32 -72 -5 -10 18 -8 19 20
14 24 -5 30 -3 30 11 0 9 -9 19 -19 22 -11 3 -17 11 -15 18 8 19 -15 29 -33
13 -14 -11 -15 -10 -9 9 6 18 -2 27 -56 59 -35 22 -67 39 -73 39 -5 0 -11 12
-13 27 -3 24 -6 26 -38 21 -20 -3 -40 -1 -48 7 -8 6 -28 11 -43 10 -52 -4 -63
0 -63 19 0 10 -14 28 -30 41 -17 13 -34 37 -38 54 -6 23 -16 32 -40 38 -18 5
-32 15 -32 23 0 8 -9 15 -20 15 -11 0 -24 8 -27 18 -9 23 -25 33 -44 27 -9 -3
-21 4 -29 20 -16 29 -28 32 -45 8 -20 -26 -70 -7 -70 27 0 27 -13 31 -90 33
-22 0 -43 5 -46 10 -10 15 -79 -1 -79 -18 0 -23 -13 -18 -35 15 -23 34 -45 39
-45 10 0 -11 -4 -20 -10 -20 -5 0 -10 5 -10 10 0 6 -9 10 -20 10 -11 0 -20 5
-20 10 0 18 -32 10 -63 -16 -29 -24 -31 -25 -38 -8 -7 18 -8 18 -9 -1 0 -16
-2 -17 -9 -5 -17 30 -21 285 -20 1063 1 436 3 828 4 872 3 92 0 105 -26 105
-24 0 -24 4 5 34 27 30 41 32 63 11 25 -26 38 -12 38 41 0 37 4 49 15 49 19 0
26 -51 9 -71 -8 -10 -8 -18 0 -27 7 -10 7 -17 0 -24 -17 -17 34 -46 72 -41 26
4 32 1 40 -20 12 -31 25 -21 44 34 11 33 11 41 -1 55 -16 18 -19 79 -4 79 9 0
15 -21 11 -42 0 -5 6 -8 14 -8 16 0 21 45 6 54 -5 3 -12 22 -16 43 -4 20 -13
46 -21 57 -8 11 -14 35 -14 54 0 20 -6 35 -15 38 -8 4 -15 12 -15 19 0 7 -7
18 -14 25 -8 6 -22 35 -30 63 -15 50 -11 74 9 59 12 -9 50 -81 50 -96 0 -6 7
-12 17 -14 20 -4 33 59 23 121 -8 46 -47 169 -75 232 -10 22 -30 72 -45 110
-15 39 -39 92 -52 119 l-25 50 -19 -25 c-18 -24 -18 -24 -12 -1 4 18 1 22 -16
22 -11 0 -21 4 -21 9 0 11 -59 36 -82 34 -39 -2 -40 -3 -31 -15 5 -7 10 -36
11 -64 3 -56 -12 -73 -48 -54 -17 9 -19 22 -18 108 1 54 -2 103 -6 110 -9 16
-26 15 -27 0z m-212 -302 c-4 -11 -16 -14 -44 -10 -62 9 -71 14 -50 26 10 5
24 8 30 5 7 -2 21 -1 32 3 24 9 40 -3 32 -24z m283 -15 c-5 -9 -15 -25 -23
-35 -13 -18 -14 -17 -21 14 -4 24 -2 38 11 52 16 18 18 18 30 2 8 -11 9 -23 3
-33z m-173 -51 c-14 -11 -27 -20 -30 -20 -3 0 -3 9 0 20 4 13 14 20 31 20 l25
0 -26 -20z m-449 -66 c9 -9 4 -15 -18 -22 -32 -11 -40 -7 -40 20 0 21 39 22
58 2z m2 -74 c0 -15 -7 -20 -24 -20 -32 0 -42 16 -19 29 28 16 43 13 43 -9z
m773 -484 c20 -15 23 -45 5 -50 -7 -2 -28 -8 -45 -14 -20 -6 -35 -7 -39 -1 -3
5 0 9 5 9 6 0 11 11 11 25 0 13 8 29 18 34 22 13 23 13 45 -3z m217 -110 c0
-8 3 -21 6 -30 4 -10 1 -16 -9 -16 -15 0 -30 37 -21 52 8 13 24 9 24 -6z m-66
-11 c-4 -8 -12 -15 -19 -15 -7 0 -15 7 -19 15 -4 11 1 15 19 15 18 0 23 -4 19
-15z m426 -2124 c0 -17 -18 -21 -24 -6 -3 9 0 15 9 15 8 0 15 -4 15 -9z
m-2570 -239 c0 -11 -41 -34 -48 -28 -3 4 3 13 14 21 21 16 34 19 34 7z m313
-39 c4 -3 -2 -13 -14 -21 -24 -17 -37 -9 -19 13 14 16 23 19 33 8z m112 -3 c3
-5 1 -10 -4 -10 -6 0 -11 5 -11 10 0 6 2 10 4 10 3 0 8 -4 11 -10z m-570 -19
c3 -5 1 -12 -5 -16 -5 -3 -10 1 -10 9 0 18 6 21 15 7z m1175 -87 c0 -8 -4 -12
-10 -9 -5 3 -10 10 -10 16 0 5 5 9 10 9 6 0 10 -7 10 -16z m17 -16 c-3 -7 -5
-2 -5 12 0 14 2 19 5 13 2 -7 2 -19 0 -25z m584 -127 c-9 -6 -10 -11 -2 -15
12 -8 6 -26 -10 -26 -5 0 -9 11 -9 25 0 17 5 25 18 25 13 0 14 -2 3 -9z m1986
-43 c-3 -8 -6 -5 -6 6 -1 11 2 17 5 13 3 -3 4 -12 1 -19z m-1840 -129 c4 -12
11 -18 20 -15 51 20 63 19 63 -7 0 -16 -7 -28 -19 -32 -21 -6 -51 3 -51 16 0
5 -9 9 -20 9 -23 0 -46 36 -27 43 23 10 29 7 34 -14z m143 -49 c0 -5 -5 -10
-11 -10 -5 0 -7 5 -4 10 3 6 8 10 11 10 2 0 4 -4 4 -10z m-20 -29 c0 -6 -4
-13 -10 -16 -5 -3 -10 1 -10 9 0 9 5 16 10 16 6 0 10 -4 10 -9z m-1260 -222
c0 -6 -4 -7 -10 -4 -5 3 -10 11 -10 16 0 6 5 7 10 4 6 -3 10 -11 10 -16z m335
-269 c3 -5 -1 -10 -9 -10 -9 0 -16 5 -16 10 0 6 4 10 9 10 6 0 13 -4 16 -10z
m63 -54 c3 -12 -1 -17 -10 -14 -7 3 -15 13 -16 22 -3 12 1 17 10 14 7 -3 15
-13 16 -22z m60 -45 c3 -8 -1 -12 -9 -9 -7 2 -15 10 -17 17 -3 8 1 12 9 9 7
-2 15 -10 17 -17z m67 -51 c3 -5 2 -10 -4 -10 -5 0 -13 5 -16 10 -3 6 -2 10 4
10 5 0 13 -4 16 -10z m86 -87 c13 -16 12 -17 -3 -4 -17 13 -22 21 -14 21 2 0
10 -8 17 -17z m4234 -153 c3 -5 2 -10 -4 -10 -5 0 -13 5 -16 10 -3 6 -2 10 4
10 5 0 13 -4 16 -10z m-3990 -90 c52 -57 38 -52 -27 9 -21 19 -38 39 -38 44 0
15 14 4 65 -53z m80 -80 c3 -5 1 -10 -4 -10 -6 0 -11 5 -11 10 0 6 2 10 4 10
3 0 8 -4 11 -10z m83 -68 c40 -32 52 -52 34 -52 -11 0 -102 84 -102 93 0 11
16 1 68 -41z m3942 -7 c0 -8 -4 -15 -10 -15 -5 0 -10 7 -10 15 0 8 5 15 10 15
6 0 10 -7 10 -15z m-3860 -71 c0 -8 -4 -12 -10 -9 -5 3 -10 10 -10 16 0 5 5 9
10 9 6 0 10 -7 10 -16z m84 -83 c21 -23 35 -41 30 -41 -10 1 -58 43 -89 80
l-20 23 20 -11 c11 -6 37 -29 59 -51z m96 -97 c5 -13 16 -24 23 -24 16 0 61
-59 52 -68 -7 -7 -125 114 -125 129 0 18 41 -11 50 -37z m178 -180 c77 -75 38
-54 -51 29 -17 15 -24 27 -18 27 7 0 38 -25 69 -56z m82 -74 c0 -5 -2 -10 -4
-10 -3 0 -8 5 -11 10 -3 6 -1 10 4 10 6 0 11 -4 11 -10z"/>
<path d="M4405 6571 c-3 -5 -1 -12 4 -15 5 -3 11 1 15 9 6 16 -9 21 -19 6z"/>
<path d="M3584 6557 c-9 -23 14 -67 35 -67 25 0 31 10 20 37 -11 29 -47 49
-55 30z"/>
<path d="M4080 6560 c0 -5 5 -10 10 -10 6 0 10 5 10 10 0 6 -4 10 -10 10 -5 0
-10 -4 -10 -10z"/>
<path d="M3679 6558 c-11 -21 -1 -62 19 -81 l25 -22 -6 40 c-4 22 -7 46 -7 53
0 10 -27 18 -31 10z"/>
<path d="M3942 6536 c2 -18 9 -25 30 -28 17 -3 29 1 33 10 4 10 0 13 -15 9
-13 -3 -21 1 -25 14 -9 27 -25 23 -23 -5z"/>
<path d="M4132 6528 c-14 -14 -16 -38 -3 -38 15 0 30 25 22 38 -5 9 -10 9 -19
0z"/>
<path d="M4065 6521 c-3 -5 -1 -12 5 -16 5 -3 10 1 10 9 0 18 -6 21 -15 7z"/>
<path d="M4335 6521 c-6 -11 9 -23 19 -14 9 9 7 23 -3 23 -6 0 -12 -4 -16 -9z"/>
<path d="M1886 6504 c-8 -21 -8 -21 14 -27 25 -6 36 9 20 28 -16 19 -26 19
-34 -1z"/>
<path d="M3810 6495 c-7 -8 -10 -26 -8 -40 6 -29 -8 -43 -25 -26 -17 17 -45
13 -52 -9 -3 -11 1 -35 10 -54 13 -27 14 -39 5 -56 -16 -29 -33 -14 -28 26 3
26 0 34 -12 34 -9 0 -20 -3 -24 -7 -4 -4 -13 -8 -19 -8 -7 0 -12 -4 -12 -10 0
-5 10 -8 23 -6 21 2 23 -1 20 -31 -3 -32 -2 -33 42 -39 54 -8 68 1 53 34 -13
29 -5 107 11 107 6 0 18 -4 25 -9 16 -10 51 3 51 18 0 5 -13 11 -30 15 -21 4
-30 11 -30 26 0 11 7 20 15 20 8 0 15 7 15 15 0 19 -14 19 -30 0z"/>
<path d="M4520 6491 c0 -6 5 -13 10 -16 6 -3 10 1 10 9 0 9 -4 16 -10 16 -5 0
-10 -4 -10 -9z"/>
<path d="M1078 6437 c8 -10 2 -23 -25 -52 -35 -38 -35 -40 -28 -99 6 -55 10
-88 14 -108 0 -5 7 -8 14 -8 12 0 67 82 67 100 0 6 5 10 11 10 6 0 8 8 5 18
-3 9 -8 44 -12 77 -6 59 -15 75 -43 75 -10 0 -11 -3 -3 -13z"/>
<path d="M3616 6424 c-7 -18 13 -27 51 -22 17 2 28 9 28 18 0 21 -71 25 -79 4z"/>
<path d="M3920 6427 c0 -18 49 -32 63 -18 14 14 7 19 -31 27 -25 5 -32 3 -32
-9z"/>
<path d="M1880 6411 c0 -6 5 -13 10 -16 6 -3 10 1 10 9 0 9 -4 16 -10 16 -5 0
-10 -4 -10 -9z"/>
<path d="M3884 6377 c-7 -20 3 -37 22 -37 18 0 18 24 -1 40 -12 10 -16 9 -21
-3z"/>
<path d="M3810 6360 c-12 -8 -9 -10 12 -10 15 0 30 5 33 10 8 13 -25 13 -45 0z"/>
<path d="M3630 6290 c0 -25 4 -30 25 -30 28 0 28 0 15 34 -14 37 -40 34 -40
-4z"/>
<path d="M1950 6230 c0 -17 3 -19 19 -10 32 16 34 30 7 30 -19 0 -26 -5 -26
-20z"/>
<path d="M2910 6230 c0 -5 5 -10 10 -10 6 0 10 5 10 10 0 6 -4 10 -10 10 -5 0
-10 -4 -10 -10z"/>
<path d="M3840 6216 c0 -14 5 -28 10 -31 6 -4 10 7 10 24 0 17 -4 31 -10 31
-5 0 -10 -11 -10 -24z"/>
<path d="M2960 6216 c0 -9 7 -16 16 -16 17 0 14 22 -4 28 -7 2 -12 -3 -12 -12z"/>
<path d="M1980 6189 c-12 -21 -6 -69 8 -69 4 0 13 9 20 21 11 18 11 24 -2 38
-9 10 -13 21 -9 24 3 4 3 7 0 7 -3 0 -11 -9 -17 -21z"/>
<path d="M2273 6203 c-15 -5 -17 -23 -4 -23 5 0 11 7 15 15 3 8 4 15 3 14 -1
0 -8 -3 -14 -6z"/>
<path d="M3458 6203 c-21 -2 -38 -8 -38 -14 0 -8 16 -10 112 -13 43 -1 44 0
24 20 -14 14 -24 14 -98 7z"/>
<path d="M3645 6200 c-3 -5 -15 -10 -26 -10 -10 0 -19 -7 -19 -15 0 -18 1 -18
35 -5 23 9 26 8 21 -5 -3 -10 1 -18 12 -22 9 -3 25 -13 35 -21 23 -20 33 -8
18 24 -16 35 -6 46 36 38 28 -5 35 -4 31 7 -6 17 -133 25 -143 9z m32 -6 c-3
-3 -12 -4 -19 -1 -8 3 -5 6 6 6 11 1 17 -2 13 -5z"/>
<path d="M3776 6151 c-3 -5 -4 -15 -1 -23 7 -18 -67 -52 -95 -43 -12 4 -27 1
-35 -5 -11 -9 -19 -9 -28 -2 -14 12 -46 -2 -34 -14 11 -12 169 -6 181 6 5 5
20 10 33 10 24 0 31 14 13 25 -6 4 -10 16 -8 27 3 22 -16 36 -26 19z"/>
<path d="M3548 6123 c-9 -2 -19 -15 -22 -29 -4 -13 -14 -24 -24 -25 -12 0 -10
-3 7 -10 35 -14 53 -4 45 25 -4 17 0 27 13 35 18 11 11 12 -19 4z"/>
<path d="M1759 6099 c11 -32 34 -38 29 -8 -1 13 -11 25 -20 27 -15 3 -16 -1
-9 -19z"/>
<path d="M3920 6112 c0 -7 -8 -12 -18 -12 -26 0 -30 -6 -24 -35 3 -17 11 -25
26 -25 15 0 17 3 7 9 -11 7 -10 13 4 35 10 15 15 29 11 33 -3 3 -6 1 -6 -5z"/>
<path d="M3953 6095 c-3 -9 -3 -19 1 -22 3 -3 1 -12 -5 -19 -9 -11 -7 -15 7
-20 11 -3 26 -9 36 -14 11 -6 18 -5 22 6 3 9 11 12 17 8 16 -9 6 6 -28 45 -31
35 -41 38 -50 16z"/>
<path d="M2760 6070 c0 -13 7 -20 20 -20 11 0 20 -6 20 -12 0 -7 5 -5 11 5 13
22 1 39 -31 44 -14 2 -20 -3 -20 -17z"/>
<path d="M1990 6051 c0 -5 3 -17 6 -26 5 -13 8 -14 15 -3 13 20 11 38 -6 38
-8 0 -15 -4 -15 -9z"/>
<path d="M2098 6033 c6 -2 12 -10 12 -18 0 -20 27 -39 36 -24 7 12 -32 49 -51
48 -5 0 -4 -3 3 -6z"/>
<path d="M2180 6024 c0 -14 3 -14 15 -4 8 7 15 14 15 16 0 2 -7 4 -15 4 -8 0
-15 -7 -15 -16z"/>
<path d="M3698 6033 c6 -2 18 -2 25 0 6 3 1 5 -13 5 -14 0 -19 -2 -12 -5z"/>
<path d="M2625 6010 c-9 -15 24 -50 47 -50 28 0 22 24 -11 43 -20 12 -32 14
-36 7z"/>
<path d="M2237 6004 c-4 -4 -7 -16 -7 -26 0 -20 25 -25 36 -7 8 13 -19 43 -29
33z"/>
<path d="M2458 6003 c12 -2 22 -11 22 -19 0 -8 5 -14 10 -14 6 0 10 6 10 14 0
15 -22 27 -48 25 -10 -1 -8 -4 6 -6z"/>
<path d="M2754 5969 c-16 -20 -26 -67 -15 -73 16 -10 32 22 29 55 -2 26 -5 29
-14 18z"/>
<path d="M2443 5960 c-30 -12 -29 -30 1 -30 25 0 51 22 39 33 -8 9 -12 8 -40
-3z"/>
<path d="M2280 5950 c0 -5 5 -10 11 -10 5 0 7 5 4 10 -3 6 -8 10 -11 10 -2 0
-4 -4 -4 -10z"/>
<path d="M2370 5950 c0 -5 -9 -10 -19 -10 -18 0 -38 -17 -30 -24 11 -8 69 17
69 29 0 8 -4 15 -10 15 -5 0 -10 -4 -10 -10z"/>
<path d="M3073 5946 c4 -10 7 -22 7 -27 0 -5 5 -9 11 -9 15 0 7 43 -10 48 -10
3 -12 0 -8 -12z"/>
<path d="M4132 5951 c4 -13 18 -16 19 -4 0 4 -5 9 -11 12 -7 2 -11 -2 -8 -8z"/>
<path d="M2660 5920 c0 -5 5 -10 10 -10 6 0 10 5 10 10 0 6 -4 10 -10 10 -5 0
-10 -4 -10 -10z"/>
<path d="M2927 5904 c-8 -8 1 -24 14 -24 5 0 9 7 9 15 0 15 -12 20 -23 9z"/>
<path d="M4115 5901 c-6 -11 33 -26 43 -16 4 3 0 10 -8 15 -19 12 -27 12 -35
1z"/>
<path d="M4200 5894 c0 -8 5 -12 10 -9 6 3 10 10 10 16 0 5 -4 9 -10 9 -5 0
-10 -7 -10 -16z"/>
<path d="M2126 5891 c-3 -5 1 -11 9 -15 18 -6 45 2 45 15 0 12 -47 12 -54 0z"/>
<path d="M3020 5892 c0 -41 28 -54 48 -22 10 16 10 20 -2 20 -8 0 -21 3 -30 6
-9 3 -16 2 -16 -4z"/>
<path d="M3280 5854 c0 -8 5 -12 10 -9 6 4 8 11 5 16 -9 14 -15 11 -15 -7z"/>
<path d="M2420 5841 c0 -11 4 -21 9 -21 18 0 21 18 6 30 -13 10 -15 9 -15 -9z"/>
<path d="M3820 5850 c0 -5 5 -10 10 -10 6 0 10 5 10 10 0 6 -4 10 -10 10 -5 0
-10 -4 -10 -10z"/>
<path d="M2731 5834 c0 -11 3 -14 6 -6 3 7 2 16 -1 19 -3 4 -6 -2 -5 -13z"/>
<path d="M4188 5839 c-10 -5 -18 -14 -18 -19 0 -13 41 -12 60 0 13 9 13 11 0
20 -18 12 -21 12 -42 -1z"/>
<path d="M4290 5835 c0 -8 7 -15 15 -15 8 0 15 7 15 15 0 8 -7 15 -15 15 -8 0
-15 -7 -15 -15z"/>
<path d="M3019 5820 c19 -17 21 -23 11 -35 -15 -18 1 -20 18 -3 19 19 14 45
-10 52 -39 10 -44 6 -19 -14z"/>
<path d="M4135 5830 c-3 -5 1 -10 10 -10 9 0 13 5 10 10 -3 6 -8 10 -10 10 -2
0 -7 -4 -10 -10z"/>
<path d="M4088 5823 c7 -3 16 -2 19 1 4 3 -2 6 -13 5 -11 0 -14 -3 -6 -6z"/>
<path d="M4352 5808 c-14 -14 -16 -38 -2 -38 13 0 32 38 22 44 -5 3 -14 0 -20
-6z"/>
<path d="M2070 5786 c0 -9 5 -16 10 -16 6 0 10 4 10 9 0 6 -4 13 -10 16 -5 3
-10 -1 -10 -9z"/>
<path d="M2716 5775 c-3 -8 -1 -15 4 -15 13 0 22 18 11 24 -5 3 -11 -1 -15 -9z"/>
<path d="M4115 5780 c-8 -13 8 -18 29 -10 19 6 19 7 -2 12 -12 4 -24 2 -27 -2z"/>
<path d="M4317 5714 c-4 -4 -7 -14 -7 -23 0 -11 3 -12 11 -4 6 6 10 16 7 23
-2 6 -7 8 -11 4z"/>
<path d="M3010 5674 c0 -8 5 -12 10 -9 6 3 10 10 10 16 0 5 -4 9 -10 9 -5 0
-10 -7 -10 -16z"/>
<path d="M4445 5650 c-3 -5 -1 -10 4 -10 6 0 11 5 11 10 0 6 -2 10 -4 10 -3 0
-8 -4 -11 -10z"/>
<path d="M4460 5503 c1 -44 2 -47 15 -29 20 26 20 76 0 76 -11 0 -15 -12 -15
-47z"/>
<path d="M4980 5468 c0 -19 2 -20 10 -8 13 19 13 30 0 30 -5 0 -10 -10 -10
-22z"/>
<path d="M7637 5419 c-228 -22 -443 -147 -543 -315 -77 -131 -100 -230 -91
-397 11 -226 100 -378 273 -469 101 -53 185 -75 388 -104 100 -14 198 -30 218
-35 108 -28 159 -149 107 -255 -38 -80 -167 -121 -344 -110 -170 11 -302 53
-385 122 l-32 27 -166 -167 -167 -167 43 -39 c108 -97 250 -167 403 -200 598
-126 1076 75 1165 491 31 143 4 372 -58 492 -11 23 -48 69 -82 103 -108 108
-266 166 -541 198 -153 18 -225 37 -264 68 -102 79 -74 221 56 284 55 27 65
29 178 28 151 -1 230 -21 309 -75 l59 -40 45 43 c192 187 273 271 268 284 -9
23 -128 105 -211 145 -103 49 -212 77 -350 89 -123 11 -153 11 -278 -1z"/>
<path d="M2390 5413 c0 -5 0 -344 0 -754 0 -709 1 -750 20 -823 43 -168 160
-335 302 -429 155 -103 285 -140 498 -143 166 -2 163 -2 155 -14 -3 -5 1 -10
9 -10 22 0 20 30 -1 31 -10 0 22 14 71 30 174 57 284 126 384 242 88 102 143
223 161 354 5 38 11 394 13 793 l3 725 -262 3 -262 2 -3 -737 -3 -738 -23 -50
c-50 -108 -135 -159 -264 -158 -127 1 -218 63 -258 176 -19 54 -20 83 -20 782
l0 725 -260 0 c-143 0 -260 -3 -260 -7z"/>
<path d="M5219 5414 c-2 -5 -3 -111 -1 -236 l3 -228 265 0 265 0 -3 -836 -3
-837 74 7 c41 3 157 6 257 6 l184 0 2 828 3 827 263 3 262 2 0 230 0 230 -739
0 c-406 0 -758 3 -783 6 -25 4 -47 2 -49 -2z"/>
<path d="M4026 3361 c-4 -5 -3 -16 0 -25 5 -14 9 -14 31 1 23 16 24 17 7 24
-26 10 -32 10 -38 0z"/>
<path d="M3305 3210 c3 -5 13 -10 21 -10 8 0 12 5 9 10 -3 6 -13 10 -21 10 -8
0 -12 -4 -9 -10z"/>
<path d="M2860 3200 c0 -5 5 -10 10 -10 6 0 10 5 10 10 0 6 -4 10 -10 10 -5 0
-10 -4 -10 -10z"/>
<path d="M3275 3160 c-3 -6 5 -10 19 -10 14 0 28 5 31 10 3 6 -5 10 -19 10
-14 0 -28 -4 -31 -10z"/>
<path d="M6050 3070 c0 -5 5 -10 10 -10 6 0 10 5 10 10 0 6 -4 10 -10 10 -5 0
-10 -4 -10 -10z"/>
<path d="M6205 2960 c-3 -5 -1 -10 4 -10 6 0 11 5 11 10 0 6 -2 10 -4 10 -3 0
-8 -4 -11 -10z"/>
<path d="M4687 2943 c-27 -14 -27 -16 -10 -29 27 -20 53 -17 53 6 0 11 0 23 1
27 1 13 -15 11 -44 -4z"/>
<path d="M4705 2881 c-3 -5 -1 -12 5 -16 5 -3 10 1 10 9 0 18 -6 21 -15 7z"/>
<path d="M6425 2839 c-4 -6 2 -13 14 -16 26 -7 27 -19 1 -35 -11 -7 -20 -16
-20 -20 0 -5 9 -8 20 -8 11 0 20 7 20 15 0 8 5 15 10 15 16 0 11 32 -7 46 -22
16 -30 17 -38 3z"/>
<path d="M8988 173 l-3 -158 -160 -5 -160 -6 168 -2 167 -2 0 165 c0 91 -2
165 -5 165 -2 0 -6 -71 -7 -157z"/>
<path d="M78 3 c46 -2 118 -2 160 0 42 1 5 3 -83 3 -88 0 -123 -2 -77 -3z"/>
</g>
</svg>
