<?xml version="1.0" standalone="no"?>
<!DOCTYPE svg PUBLIC "-//W3C//DTD SVG 20010904//EN"
 "http://www.w3.org/TR/2001/REC-SVG-20010904/DTD/svg10.dtd">
<svg version="1.0" xmlns="http://www.w3.org/2000/svg"
 width="148.000000pt" height="150.000000pt" viewBox="0 0 148.000000 150.000000"
 preserveAspectRatio="xMidYMid meet">

<g transform="translate(0.000000,150.000000) scale(0.100000,-0.100000)"
fill="#000000" stroke="none">
<path d="M582 1375 c-77 -18 -133 -46 -130 -63 2 -9 86 -61 187 -116 101 -56
183 -105 183 -109 -1 -4 -31 -33 -68 -64 l-66 -56 79 -81 79 -81 -12 -205 c-7
-113 -13 -214 -14 -225 -1 -11 -97 175 -215 413 l-214 432 -110 -82 c-96 -73
-112 -90 -134 -138 -69 -152 -63 -356 14 -514 77 -158 205 -269 384 -331 73
-25 242 -31 327 -11 377 88 589 496 444 853 -22 54 -26 57 -132 118 -60 35
-110 62 -111 61 -2 -1 13 -164 32 -362 19 -197 35 -363 34 -369 0 -14 -21 27
-115 222 l-82 171 44 65 44 66 -83 57 c-45 32 -84 59 -86 61 -3 2 33 41 78 87
80 80 83 86 77 119 -6 30 -13 38 -54 55 -101 43 -267 55 -380 27z"/>
</g>
</svg>
